<svg width="108" height="43" viewBox="0 0 108 43" fill="none" xmlns="http://www.w3.org/2000/svg">
<g clip-path="url(#clip0_158_1433)" filter="url(#filter0_d_158_1433)">
<path d="M18.8813 19.0764L16.7217 33.5442H13.1245L13.3385 32.1829C12.4885 33.2419 11.3626 33.8161 10.2003 33.7832C9.41261 33.7895 8.63734 33.5208 7.9513 33.0038C7.24214 32.4652 6.65785 31.676 6.26259 30.7229C5.82099 29.6442 5.6002 28.4291 5.62251 27.2001C5.6073 25.7137 5.87935 24.2472 6.41239 22.9421C6.91391 21.7056 7.65246 20.6692 8.55247 19.9389C9.43995 19.2141 10.4616 18.8353 11.5019 18.8452C13.0739 18.8452 14.1796 19.5034 14.819 20.8196L15.0797 19.0842L18.8813 19.0764ZM13.3832 28.7485C13.8631 28.0003 14.1031 27.0304 14.1031 25.8388C14.1175 25.4692 14.0764 25.0995 13.9822 24.7515C13.888 24.4035 13.7425 24.0842 13.5544 23.8124C13.3547 23.5561 13.1175 23.3574 12.8578 23.2287C12.5981 23.1 12.3213 23.044 12.0447 23.0642C11.6916 23.0514 11.3409 23.1458 11.0191 23.3402C10.6973 23.5346 10.4126 23.824 10.1867 24.1865C9.70811 24.9313 9.46817 25.9089 9.46687 27.1196C9.44283 27.4886 9.47956 27.8602 9.57451 28.2082C9.66945 28.5563 9.82029 28.8724 10.0164 29.1343C10.2126 29.3962 10.4493 29.5977 10.71 29.7244C10.9706 29.8512 11.2489 29.9003 11.5252 29.8682C11.8782 29.8813 12.2287 29.7873 12.5506 29.5934C12.8724 29.3994 13.1571 29.1106 13.3832 28.7485Z" fill="#E03111"/>
<path d="M32.7062 19.0764L30.5486 33.5442H26.9572L27.1712 32.053C26.7196 32.6243 26.1853 33.0664 25.6012 33.352C25.0287 33.6339 24.4234 33.7782 23.8132 33.778C22.6264 33.778 21.6835 33.3511 20.9844 32.4972C20.2853 31.6434 19.9351 30.425 19.9338 28.842C19.9349 28.2405 19.9819 27.6408 20.0739 27.052L21.2743 19.0712H25.072L23.9513 26.5714C23.8996 26.8968 23.8729 27.2285 23.8716 27.5612C23.8716 28.8238 24.358 29.4551 25.3307 29.4551C25.6276 29.4687 25.9236 29.4038 26.2018 29.2643C26.4799 29.1247 26.7346 28.9132 26.9513 28.6419C27.3768 28.0998 27.6699 27.2945 27.8307 26.2259L28.9027 19.0764H32.7062Z" fill="#E03111"/>
<path d="M38.0097 28.1795C37.9898 28.3351 37.9768 28.4921 37.9708 28.6497C37.9708 29.4499 38.295 29.85 38.9436 29.85C39.3353 29.8352 39.7182 29.6915 40.0583 29.4317L40.5292 32.8532C39.7976 33.4126 38.8781 33.6914 37.7704 33.6897C36.6628 33.688 35.7925 33.3225 35.1595 32.5934C34.511 31.8608 34.1867 30.8415 34.1867 29.5356C34.1827 29.0888 34.2153 28.6428 34.284 28.2055L34.9883 23.5293H33.4319L34 19.8194H35.5311L36.0836 16.1096H39.8268L39.2743 19.8194H41.6673L41.1187 23.5293H38.714L38.0097 28.1795Z" fill="#E03111"/>
<path d="M44.6128 33.1364C43.8 32.6393 43.1126 31.8379 42.6342 30.8294C42.1591 29.7857 41.9174 28.5823 41.9377 27.3612C41.9188 25.8697 42.2113 24.4007 42.7824 23.1187C43.3535 21.8366 44.1806 20.7923 45.1712 20.1026C46.2233 19.3616 47.3981 18.9855 48.5875 19.0089C49.6198 18.9781 50.6441 19.2559 51.5856 19.8221C52.3967 20.3177 53.0837 21.115 53.5642 22.1186C54.0402 23.1571 54.2826 24.3565 54.2626 25.5738C54.2782 27.0652 53.9853 28.5335 53.4162 29.8169C52.8471 31.1003 52.0238 32.1492 51.0369 32.848C49.9817 33.5931 48.8024 33.9694 47.6089 33.9417C46.5776 33.9763 45.5537 33.701 44.6128 33.1364ZM49.6867 28.7485C50.1666 28.0003 50.4066 27.0304 50.4066 25.8388C50.4213 25.4703 50.3812 25.1015 50.2887 24.7537C50.1962 24.406 50.0531 24.0861 49.8677 23.8124C49.6705 23.5558 49.4355 23.3567 49.1776 23.2279C48.9197 23.0991 48.6445 23.0433 48.3696 23.0642C48.0162 23.051 47.6651 23.1452 47.3429 23.3396C47.0207 23.534 46.7358 23.8236 46.5097 24.1865C46.0311 24.9313 45.7918 25.909 45.7918 27.1196C45.7763 27.4866 45.816 27.8541 45.9085 28.2004C46.0011 28.5466 46.1446 28.8646 46.3307 29.1356C46.5297 29.3879 46.7652 29.5831 47.0229 29.7091C47.2805 29.8351 47.5548 29.8892 47.8288 29.8682C48.1817 29.8813 48.5323 29.7874 48.8541 29.5934C49.1759 29.3995 49.4606 29.1106 49.6867 28.7485Z" fill="#E03111"/>
<path d="M65.6168 22.3316L59.7802 29.8344H64.7705L64.146 33.9157H54.1654L54.607 30.9099L60.6732 23.1578H55.9456L56.4962 19.4479H66.0623L65.6168 22.3316Z" fill="#E03111"/>
<path d="M76.1186 21.7497L73.2295 25.2205C73.8918 25.4368 74.4873 25.9225 74.9338 26.6104C75.3413 27.2831 75.5558 28.1277 75.5389 28.9926C75.5465 30.0106 75.2962 31.002 74.8288 31.8062C74.3175 32.6702 73.6472 33.3425 72.8832 33.7572C71.9927 34.247 71.0368 34.4892 70.0739 34.469C69.2848 34.4752 68.4989 34.3335 67.7393 34.0482C67.0523 33.7965 66.4064 33.3763 65.8346 32.809L67.319 29.7694C67.7352 30.1843 68.2028 30.4982 68.7003 30.6969C69.215 30.9107 69.7509 31.0194 70.2898 31.019C71.2548 31.019 71.8884 30.6848 72.1906 30.0162C72.2365 29.9145 72.2688 29.8028 72.286 29.6863C72.4688 28.5484 71.9811 27.9795 70.8229 27.9795H69.4727L69.8735 25.3036L72.2762 22.4147H67.9533L68.4591 19.0764H76.5077L76.1186 21.7497Z" fill="#1D1D1B"/>
<path d="M83.9397 25.0387C84.4551 25.3538 84.8958 25.8516 85.2141 26.4779C85.543 27.1444 85.7108 27.9297 85.6946 28.7277C85.7129 29.7269 85.5098 30.7111 85.1109 31.5568C84.7132 32.3711 84.1505 33.0179 83.4884 33.4221C82.7509 33.8725 81.9471 34.0962 81.1362 34.0768C80.3235 34.0987 79.5182 33.8674 78.7841 33.4013C78.1151 32.9633 77.5605 32.2662 77.1927 31.4009C76.7907 30.4095 76.5927 29.2935 76.6187 28.1665C76.6206 26.6684 76.869 25.189 77.3464 23.8332C77.8407 22.418 78.6218 21.2157 79.6012 20.3624C80.6207 19.4514 81.8755 18.9959 83.3658 18.9959C83.9828 18.991 84.598 19.0843 85.1985 19.2739C85.6953 19.4201 86.1684 19.6841 86.5954 20.0533L85.1985 22.9603C84.5995 22.4593 83.9007 22.2129 83.1946 22.2537C82.3464 22.2537 81.6583 22.5481 81.1304 23.137C80.5877 23.7556 80.2028 24.5847 80.0292 25.5089C80.5973 24.875 81.3373 24.5572 82.2491 24.5554C82.8326 24.5461 83.4102 24.7112 83.9397 25.0387ZM82.2102 30.6112C82.3607 30.4223 82.4789 30.1922 82.5564 29.9366C82.634 29.6809 82.6692 29.4059 82.6596 29.1304C82.6683 28.9056 82.6395 28.6811 82.5753 28.4731C82.511 28.265 82.4129 28.0787 82.288 27.9275C82.0034 27.6204 81.6437 27.4649 81.2783 27.4911C80.8575 27.4697 80.4464 27.6629 80.1285 28.0314C79.9808 28.2078 79.864 28.4253 79.7863 28.6686C79.7086 28.912 79.672 29.1752 79.679 29.4395C79.6737 29.6686 79.7042 29.8966 79.7685 30.1091C79.8328 30.3215 79.9295 30.5138 80.0526 30.6735C80.1926 30.8433 80.3567 30.974 80.5351 31.0579C80.7135 31.1418 80.9027 31.1771 81.0915 31.1619C81.5036 31.1778 81.9044 30.9805 82.2102 30.6112Z" fill="#1D1D1B"/>
<path d="M90.9377 22.4147L90.4649 24.6411H90.9649C92.3501 24.6411 93.4053 25.0022 94.1303 25.7245C94.8553 26.4467 95.2178 27.4945 95.2178 28.8679C95.2343 29.9547 94.9865 31.0194 94.5116 31.9023C94.0155 32.7971 93.3415 33.4883 92.5661 33.8975C91.663 34.3775 90.6975 34.6133 89.7256 34.5911C88.9299 34.5986 88.1374 34.456 87.3715 34.1677C86.6801 33.9165 86.0301 33.4944 85.4552 32.9233L86.9494 29.8655C87.3675 30.282 87.837 30.5977 88.3365 30.7982C88.8544 31.0128 89.3935 31.1222 89.9358 31.1229C90.5843 31.1229 91.0875 30.9679 91.4455 30.6579C91.6136 30.525 91.752 30.3345 91.8465 30.1061C91.9409 29.8777 91.9878 29.6197 91.9824 29.3589C91.9887 29.1495 91.9518 28.9418 91.8756 28.7585C91.7994 28.5752 91.687 28.4235 91.5505 28.3198C91.2639 28.0808 90.8015 27.9613 90.1634 27.9613H86.9999L88.9066 19.0582H95.7821L95.2762 22.3965L90.9377 22.4147Z" fill="#1D1D1B"/>
<path d="M4 18.2841C4 18.2841 6.27627 14.5119 10.6537 12.6466C15.1887 10.7164 21.5837 10.7657 32.4903 11.0047C32.8064 11.013 33.117 10.8935 33.3813 10.6618C35.1206 9.13164 42.1148 3.12787 46.4436 1.37428C53.609 -1.50941 62.5759 0.594902 72.4261 3.7124C82.3308 6.82989 92.9806 10.3293 101.302 8.53152C101.302 8.53152 96.8269 12.9038 89.0662 13.2597C81.8677 13.5923 76.4027 13.8988 76.4027 13.8988C76.4027 13.8988 87.1693 12.0439 90.4105 10.7372C90.4105 10.7372 88.2374 10.1578 84.6518 9.09787C81.6673 8.21458 77.5584 6.9468 74.2743 5.85567C59.3346 0.878075 54.3483 1.03395 51.0817 1.57172C46.6829 2.29653 42.7296 4.05012 33.7276 12.3738C33.4537 12.6271 33.1246 12.7523 32.7918 12.7297C16.6576 11.623 9.8716 12.8285 4 18.2841Z" fill="#E03111"/>
<path d="M66.6284 8.06909L62.7549 12.4336C62.5619 12.6518 62.3171 12.7715 62.0642 12.7713H37.3405C37.2071 12.7714 37.0773 12.7137 36.9706 12.607C36.8638 12.5002 36.7858 12.3501 36.7484 12.1792C36.7109 12.0083 36.7159 11.8257 36.7627 11.659C36.8095 11.4922 36.8955 11.3501 37.0078 11.2541C39.1482 9.41748 41.363 7.74014 43.642 6.22977C47.5331 3.75396 51.9922 2.28354 60.9241 3.8319C66.0602 4.73341 71.1464 6.08464 76.1498 7.87685C76.2321 7.90691 76.3073 7.9645 76.3683 8.04416C76.4293 8.12383 76.4741 8.22295 76.4985 8.33216C76.5228 8.44138 76.5259 8.55707 76.5075 8.66832C76.489 8.77957 76.4496 8.88271 76.393 8.96797L75.6362 10.1162C75.2822 10.654 74.7914 10.9974 74.2588 11.0801L67.286 12.153L72.7568 10.5943C72.8938 10.5551 73.0236 10.4797 73.1385 10.3727C73.2535 10.2656 73.3512 10.1289 73.4261 9.97076L74.1459 8.44319C74.1717 8.38895 74.1875 8.32735 74.192 8.26341C74.1966 8.19947 74.1898 8.13499 74.1721 8.07523C74.1545 8.01548 74.1266 7.96213 74.0906 7.91953C74.0546 7.87693 74.0115 7.84628 73.965 7.83009C69.3153 6.23138 64.5907 5.04929 59.823 4.29173C55.6187 3.60328 52.0992 3.57211 48.9689 4.42422C45.2082 5.4452 42.002 7.67421 38.8327 10.6774C38.8018 10.707 38.7766 10.746 38.7592 10.7911C38.7418 10.8363 38.7327 10.8864 38.7327 10.9372C38.7327 10.988 38.7418 11.038 38.7592 11.0832C38.7766 11.1284 38.8018 11.1674 38.8327 11.197C39.1615 11.5295 39.8385 12.0257 40.9514 12.0257H61.8191C62.1838 12.0256 62.5396 11.876 62.8385 11.5971L66.6284 8.06909Z" fill="#E03111"/>
<path d="M96.498 13.5429L98.6031 15.1017C99.0141 15.4059 99.4577 15.624 99.9183 15.7485L104.004 16.8423H99.4047C99.2044 16.8423 99.0064 16.7866 98.8232 16.6789C98.64 16.5711 98.4756 16.4135 98.3405 16.2162L96.498 13.5429Z" fill="#E03111"/>
<path opacity="0.25" d="M76.4027 13.8832C76.4027 13.8832 81.8657 13.5767 89.0661 13.2441C96.8268 12.8882 101.302 8.51593 101.302 8.51593C101.302 8.51593 95.7412 10.5943 90.8171 11.5789C85.893 12.5635 76.4027 13.8832 76.4027 13.8832Z" fill="#E03111"/>
<path opacity="0.25" d="M96.498 13.5429L98.3405 16.2265C98.4754 16.4241 98.6398 16.5819 98.823 16.6897C99.0063 16.7975 99.2044 16.853 99.4047 16.8526H100.183L96.498 13.5429Z" fill="#E03111"/>
<path opacity="0.25" d="M32.7938 12.7298C33.1266 12.7523 33.4556 12.6271 33.7296 12.3738C42.7315 4.06052 46.6848 2.29654 51.0837 1.57172C52.7198 1.31193 54.7802 1.13008 58.3113 1.64447C49.963 0.205222 45.1945 2.54594 41.4922 5.28154C38.1848 7.72098 33.428 11.8828 33.428 11.8828C33.428 11.8828 33.0603 11.8543 20.9475 11.6698C8.83463 11.4854 4 18.2841 4 18.2841C9.8716 12.8285 16.6576 11.623 32.7938 12.7298Z" fill="#E03111"/>
</g>
<defs>
<filter id="filter0_d_158_1433" x="0" y="0" width="108" height="42.5912" filterUnits="userSpaceOnUse" color-interpolation-filters="sRGB">
<feFlood flood-opacity="0" result="BackgroundImageFix"/>
<feColorMatrix in="SourceAlpha" type="matrix" values="0 0 0 0 0 0 0 0 0 0 0 0 0 0 0 0 0 0 127 0" result="hardAlpha"/>
<feOffset dy="4"/>
<feGaussianBlur stdDeviation="2"/>
<feComposite in2="hardAlpha" operator="out"/>
<feColorMatrix type="matrix" values="0 0 0 0 0 0 0 0 0 0 0 0 0 0 0 0 0 0 0.25 0"/>
<feBlend mode="normal" in2="BackgroundImageFix" result="effect1_dropShadow_158_1433"/>
<feBlend mode="normal" in="SourceGraphic" in2="effect1_dropShadow_158_1433" result="shape"/>
</filter>
<clipPath id="clip0_158_1433">
<rect width="100" height="34.5912" fill="white" transform="translate(4)"/>
</clipPath>
</defs>
</svg>
