<svg width="108" height="43" viewBox="0 0 108 43" fill="none" xmlns="http://www.w3.org/2000/svg">
<g clip-path="url(#clip0_271_6640)" filter="url(#filter0_d_271_6640)">
<path d="M18.8814 19.0761L16.7219 33.5439H13.1246L13.3386 32.1826C12.4886 33.2416 11.3627 33.8158 10.2005 33.7829C9.41273 33.7892 8.63746 33.5205 7.95142 33.0035C7.24226 32.4649 6.65797 31.6756 6.26271 30.7226C5.82111 29.6439 5.60033 28.4288 5.62263 27.1998C5.60742 25.7134 5.87947 24.2469 6.41251 22.9418C6.91403 21.7053 7.65258 20.6688 8.55259 19.9386C9.44007 19.2138 10.4617 18.8349 11.502 18.8449C13.074 18.8449 14.1797 19.5031 14.8191 20.8193L15.0798 19.0839L18.8814 19.0761ZM13.3833 28.7482C13.8632 28 14.1032 27.0301 14.1032 25.8385C14.1177 25.4689 14.0766 25.0992 13.9823 24.7512C13.8881 24.4032 13.7427 24.0839 13.5545 23.8121C13.3548 23.5558 13.1177 23.3571 12.8579 23.2284C12.5982 23.0997 12.3214 23.0437 12.0448 23.0639C11.6917 23.0511 11.341 23.1455 11.0192 23.3399C10.6974 23.5343 10.4128 23.8237 10.1868 24.1862C9.70823 24.931 9.46829 25.9086 9.46699 27.1193C9.44295 27.4883 9.47969 27.8599 9.57463 28.2079C9.66957 28.556 9.82041 28.8721 10.0166 29.134C10.2127 29.3959 10.4494 29.5973 10.7101 29.7241C10.9707 29.8509 11.249 29.9 11.5254 29.8679C11.8783 29.881 12.2289 29.787 12.5507 29.5931C12.8725 29.3991 13.1572 29.1103 13.3833 28.7482Z" fill="#E03111"/>
<path d="M32.7062 19.0765L30.5486 33.5443H26.9572L27.1712 32.0531C26.7196 32.6244 26.1853 33.0664 25.6012 33.352C25.0287 33.634 24.4234 33.7782 23.8132 33.7781C22.6264 33.7781 21.6835 33.3511 20.9844 32.4973C20.2853 31.6434 19.9351 30.425 19.9338 28.842C19.9349 28.2406 19.9819 27.6408 20.0739 27.0521L21.2743 19.0713H25.072L23.9513 26.5715C23.8996 26.8969 23.8729 27.2286 23.8716 27.5613C23.8716 28.8238 24.358 29.4551 25.3307 29.4551C25.6276 29.4687 25.9236 29.4039 26.2018 29.2643C26.4799 29.1248 26.7346 28.9133 26.9513 28.642C27.3768 28.0999 27.6699 27.2945 27.8307 26.2259L28.9027 19.0765H32.7062Z" fill="#E03111"/>
<path d="M38.0097 28.1793C37.9898 28.3348 37.9768 28.4919 37.9708 28.6495C37.9708 29.4496 38.295 29.8497 38.9436 29.8497C39.3353 29.8349 39.7182 29.6912 40.0583 29.4315L40.5292 32.8529C39.7976 33.4123 38.8781 33.6912 37.7704 33.6894C36.6628 33.6877 35.7925 33.3223 35.1595 32.5931C34.511 31.8605 34.1867 30.8413 34.1867 29.5354C34.1827 29.0886 34.2153 28.6426 34.284 28.2053L34.9883 23.529H33.4319L34 19.8192H35.5311L36.0836 16.1094H39.8268L39.2743 19.8192H41.6673L41.1187 23.529H38.714L38.0097 28.1793Z" fill="#E03111"/>
<path d="M44.6128 33.1361C43.8 32.639 43.1126 31.8376 42.6342 30.8292C42.1591 29.7854 41.9174 28.5821 41.9377 27.3609C41.9188 25.8695 42.2113 24.4004 42.7824 23.1184C43.3535 21.8364 44.1806 20.792 45.1712 20.1024C46.2233 19.3614 47.3981 18.9853 48.5875 19.0087C49.6198 18.9778 50.6441 19.2557 51.5856 19.8218C52.3967 20.3174 53.0837 21.1148 53.5642 22.1184C54.0402 23.1569 54.2826 24.3563 54.2626 25.5736C54.2782 27.065 53.9853 28.5332 53.4162 29.8167C52.8471 31.1001 52.0238 32.149 51.0369 32.8477C49.9817 33.5929 48.8024 33.9692 47.6089 33.9415C46.5776 33.976 45.5537 33.7008 44.6128 33.1361ZM49.6867 28.7482C50.1666 28 50.4066 27.0301 50.4066 25.8386C50.4213 25.47 50.3812 25.1013 50.2887 24.7535C50.1962 24.4057 50.0531 24.0858 49.8677 23.8122C49.6705 23.5555 49.4355 23.3565 49.1776 23.2276C48.9197 23.0988 48.6445 23.0431 48.3696 23.064C48.0162 23.0508 47.6651 23.145 47.3429 23.3394C47.0207 23.5338 46.7358 23.8234 46.5097 24.1863C46.0311 24.931 45.7918 25.9087 45.7918 27.1193C45.7763 27.4864 45.816 27.8539 45.9085 28.2001C46.0011 28.5464 46.1446 28.8643 46.3307 29.1353C46.5297 29.3876 46.7652 29.5828 47.0229 29.7088C47.2805 29.8348 47.5548 29.889 47.8288 29.8679C48.1817 29.8811 48.5323 29.7871 48.8541 29.5932C49.1759 29.3992 49.4606 29.1103 49.6867 28.7482Z" fill="#E03111"/>
<path d="M65.6167 22.3314L59.7801 29.8342H64.7703L64.1458 33.9155H54.1653L54.6069 30.9097L60.6731 23.1576H55.9454L56.496 19.4478H66.0622L65.6167 22.3314Z" fill="#E03111"/>
<path d="M76.1188 21.7494L73.2297 25.2202C73.8919 25.4365 74.4874 25.9222 74.9339 26.6101C75.3414 27.2828 75.5559 28.1275 75.539 28.9924C75.5466 30.0103 75.2963 31.0018 74.8289 31.8059C74.3176 32.67 73.6473 33.3422 72.8834 33.757C71.9929 34.2467 71.037 34.4889 70.074 34.4688C69.2849 34.4749 68.499 34.3332 67.7394 34.0479C67.0524 33.7963 66.4065 33.3761 65.8347 32.8087L67.3192 29.7692C67.7353 30.184 68.2029 30.4979 68.7005 30.6966C69.2151 30.9105 69.751 31.0191 70.29 31.0188C71.2549 31.0188 71.8885 30.6845 72.1907 30.016C72.2366 29.9142 72.2689 29.8026 72.2861 29.686C72.469 28.5482 71.9813 27.9792 70.823 27.9792H69.4729L69.8736 25.3034L72.2763 22.4145H67.9534L68.4592 19.0762H76.5079L76.1188 21.7494Z" fill="white"/>
<path d="M83.9397 25.0385C84.4551 25.3537 84.8958 25.8515 85.2141 26.4778C85.543 27.1443 85.7108 27.9296 85.6946 28.7276C85.7129 29.7268 85.5098 30.7109 85.1109 31.5567C84.7132 32.371 84.1505 33.0178 83.4884 33.422C82.7509 33.8724 81.9471 34.0961 81.1362 34.0767C80.3235 34.0986 79.5182 33.8673 78.7841 33.4012C78.1151 32.9632 77.5605 32.2661 77.1927 31.4008C76.7907 30.4093 76.5927 29.2933 76.6187 28.1664C76.6206 26.6682 76.869 25.1889 77.3464 23.8331C77.8407 22.4179 78.6218 21.2156 79.6012 20.3623C80.6207 19.4513 81.8755 18.9958 83.3658 18.9958C83.9828 18.9909 84.598 19.0842 85.1985 19.2738C85.6953 19.42 86.1684 19.6839 86.5954 20.0531L85.1985 22.9602C84.5995 22.4592 83.9007 22.2127 83.1946 22.2536C82.3464 22.2536 81.6583 22.548 81.1304 23.1369C80.5877 23.7555 80.2028 24.5846 80.0292 25.5088C80.5973 24.8749 81.3373 24.5571 82.2491 24.5553C82.8326 24.5459 83.4102 24.711 83.9397 25.0385ZM82.2102 30.6111C82.3607 30.4222 82.4789 30.1921 82.5564 29.9364C82.634 29.6808 82.6692 29.4058 82.6596 29.1302C82.6683 28.9055 82.6395 28.681 82.5753 28.4729C82.511 28.2649 82.4129 28.0786 82.288 27.9274C82.0034 27.6203 81.6437 27.4648 81.2783 27.491C80.8575 27.4695 80.4464 27.6627 80.1285 28.0313C79.9808 28.2076 79.864 28.4252 79.7863 28.6685C79.7086 28.9119 79.672 29.175 79.679 29.4394C79.6737 29.6684 79.7042 29.8965 79.7685 30.1089C79.8328 30.3214 79.9295 30.5136 80.0526 30.6734C80.1926 30.8432 80.3567 30.9739 80.5351 31.0578C80.7135 31.1416 80.9027 31.177 81.0915 31.1618C81.5036 31.1776 81.9044 30.9803 82.2102 30.6111Z" fill="white"/>
<path d="M90.9378 22.4146L90.4651 24.641H90.9651C92.3503 24.641 93.4054 25.0021 94.1304 25.7243C94.8555 26.4466 95.218 27.4944 95.218 28.8678C95.2344 29.9546 94.9866 31.0193 94.5117 31.9022C94.0156 32.7969 93.3416 33.4881 92.5662 33.8974C91.6631 34.3774 90.6976 34.6131 89.7258 34.591C88.93 34.5984 88.1375 34.4559 87.3717 34.1676C86.6803 33.9164 86.0302 33.4943 85.4553 32.9232L86.9495 29.8654C87.3676 30.2819 87.8371 30.5975 88.3366 30.7981C88.8545 31.0126 89.3936 31.1221 89.9359 31.1228C90.5844 31.1228 91.0876 30.9678 91.4456 30.6578C91.6137 30.5249 91.7522 30.3344 91.8466 30.106C91.941 29.8776 91.9879 29.6196 91.9826 29.3588C91.9888 29.1494 91.9519 28.9417 91.8757 28.7584C91.7995 28.5751 91.6871 28.4233 91.5507 28.3197C91.264 28.0807 90.8016 27.9611 90.1635 27.9611H87.0001L88.9067 19.0581H95.7822L95.2763 22.3964L90.9378 22.4146Z" fill="white"/>
<path d="M4 18.2839C4 18.2839 6.27627 14.5117 10.6537 12.6464C15.1887 10.7162 21.5837 10.7655 32.4903 11.0046C32.8064 11.0128 33.117 10.8933 33.3813 10.6616C35.1206 9.13146 42.1148 3.12768 46.4436 1.37409C53.609 -1.50959 62.5759 0.594719 72.4261 3.71221C82.3308 6.82971 92.9806 10.3291 101.302 8.53134C101.302 8.53134 96.8269 12.9036 89.0662 13.2595C81.8677 13.5921 76.4027 13.8986 76.4027 13.8986C76.4027 13.8986 87.1693 12.0437 90.4105 10.737C90.4105 10.737 88.2374 10.1576 84.6518 9.09769C81.6673 8.2144 77.5584 6.94661 74.2743 5.85549C59.3346 0.877892 54.3483 1.03377 51.0817 1.57153C46.6829 2.29635 42.7296 4.04994 33.7276 12.3737C33.4537 12.6269 33.1246 12.7521 32.7918 12.7296C16.6576 11.6229 9.8716 12.8283 4 18.2839Z" fill="#E03111"/>
<path d="M66.6283 8.06885L62.7548 12.4333C62.5617 12.6516 62.317 12.7712 62.0641 12.7711H37.3404C37.207 12.7711 37.0772 12.7135 36.9704 12.6067C36.8637 12.5 36.7857 12.3499 36.7482 12.179C36.7108 12.008 36.7158 11.8255 36.7626 11.6587C36.8093 11.4919 36.8953 11.3499 37.0077 11.2539C39.1481 9.41724 41.3629 7.7399 43.6419 6.22953C47.533 3.75372 51.9921 2.2833 60.924 3.83165C66.0601 4.73317 71.1463 6.0844 76.1497 7.8766C76.232 7.90667 76.3072 7.96425 76.3682 8.04392C76.4292 8.12359 76.474 8.22271 76.4984 8.33192C76.5227 8.44113 76.5258 8.55683 76.5073 8.66808C76.4889 8.77932 76.4495 8.88246 76.3929 8.96773L75.6361 10.116C75.282 10.6537 74.7913 10.9971 74.2586 11.0798L67.2859 12.1528L72.7567 10.594C72.8937 10.5548 73.0235 10.4795 73.1384 10.3724C73.2533 10.2653 73.3511 10.1287 73.426 9.97052L74.1458 8.44295C74.1716 8.3887 74.1874 8.32711 74.1919 8.26317C74.1965 8.19923 74.1897 8.13475 74.172 8.07499C74.1544 8.01523 74.1264 7.96189 74.0904 7.91929C74.0544 7.87669 74.0114 7.84604 73.9649 7.82984C69.3151 6.23113 64.5906 5.04905 59.8228 4.29148C55.6186 3.60304 52.0991 3.57186 48.9688 4.42398C45.2081 5.44496 42.0018 7.67397 38.8326 10.6772C38.8016 10.7067 38.7764 10.7457 38.7591 10.7909C38.7417 10.8361 38.7326 10.8861 38.7326 10.9369C38.7326 10.9877 38.7417 11.0378 38.7591 11.083C38.7764 11.1282 38.8016 11.1672 38.8326 11.1967C39.1614 11.5293 39.8384 12.0255 40.9512 12.0255H61.819C62.1836 12.0254 62.5395 11.8758 62.8384 11.5968L66.6283 8.06885Z" fill="#E03111"/>
<path d="M96.498 13.5425L98.6031 15.1012C99.0141 15.4055 99.4577 15.6236 99.9183 15.7481L104.004 16.8418H99.4047C99.2044 16.8419 99.0064 16.7862 98.8232 16.6784C98.64 16.5706 98.4756 16.4131 98.3405 16.2157L96.498 13.5425Z" fill="#E03111"/>
<path opacity="0.25" d="M76.4028 13.8829C76.4028 13.8829 81.8659 13.5764 89.0662 13.2438C96.8269 12.8879 101.302 8.51562 101.302 8.51562C101.302 8.51562 95.7413 10.594 90.8172 11.5786C85.8931 12.5632 76.4028 13.8829 76.4028 13.8829Z" fill="#E03111"/>
<path opacity="0.25" d="M96.498 13.5425L98.3405 16.2261C98.4754 16.4237 98.6398 16.5814 98.823 16.6893C99.0063 16.7971 99.2044 16.8526 99.4047 16.8522H100.183L96.498 13.5425Z" fill="#E03111"/>
<path opacity="0.25" d="M32.7938 12.7293C33.1266 12.7518 33.4556 12.6267 33.7296 12.3734C42.7315 4.0601 46.6848 2.29611 51.0837 1.5713C52.7198 1.31151 54.7802 1.12965 58.3113 1.64404C49.963 0.204795 45.1945 2.54551 41.4922 5.28111C38.1848 7.72055 33.428 11.8824 33.428 11.8824C33.428 11.8824 33.0603 11.8538 20.9475 11.6694C8.83463 11.4849 4 18.2837 4 18.2837C9.8716 12.828 16.6576 11.6226 32.7938 12.7293Z" fill="#E03111"/>
</g>
<defs>
<filter id="filter0_d_271_6640" x="0" y="0" width="108" height="42.5913" filterUnits="userSpaceOnUse" color-interpolation-filters="sRGB">
<feFlood flood-opacity="0" result="BackgroundImageFix"/>
<feColorMatrix in="SourceAlpha" type="matrix" values="0 0 0 0 0 0 0 0 0 0 0 0 0 0 0 0 0 0 127 0" result="hardAlpha"/>
<feOffset dy="4"/>
<feGaussianBlur stdDeviation="2"/>
<feComposite in2="hardAlpha" operator="out"/>
<feColorMatrix type="matrix" values="0 0 0 0 0 0 0 0 0 0 0 0 0 0 0 0 0 0 0.25 0"/>
<feBlend mode="normal" in2="BackgroundImageFix" result="effect1_dropShadow_271_6640"/>
<feBlend mode="normal" in="SourceGraphic" in2="effect1_dropShadow_271_6640" result="shape"/>
</filter>
<clipPath id="clip0_271_6640">
<rect width="100" height="34.5912" fill="white" transform="translate(4)"/>
</clipPath>
</defs>
</svg>
