<svg width="108" height="43" viewBox="0 0 108 43" fill="none" xmlns="http://www.w3.org/2000/svg">
<g clip-path="url(#clip0_169_2880)" filter="url(#filter0_d_169_2880)">
<path d="M18.8814 19.0765L16.7219 33.5443H13.1246L13.3386 32.183C12.4886 33.242 11.3627 33.8162 10.2005 33.7833C9.41273 33.7895 8.63746 33.5209 7.95142 33.0039C7.24226 32.4652 6.65797 31.676 6.26271 30.7229C5.82111 29.6443 5.60033 28.4292 5.62263 27.2002C5.60742 25.7138 5.87947 24.2472 6.41251 22.9422C6.91403 21.7056 7.65258 20.6692 8.55259 19.939C9.44007 19.2142 10.4617 18.8353 11.502 18.8453C13.074 18.8453 14.1797 19.5034 14.8191 20.8197L15.0798 19.0843L18.8814 19.0765ZM13.3833 28.7485C13.8632 28.0003 14.1032 27.0304 14.1032 25.8389C14.1177 25.4693 14.0766 25.0996 13.9823 24.7516C13.8881 24.4036 13.7427 24.0842 13.5545 23.8125C13.3548 23.5562 13.1177 23.3575 12.8579 23.2288C12.5982 23.1 12.3214 23.0441 12.0448 23.0643C11.6917 23.0515 11.341 23.1458 11.0192 23.3402C10.6974 23.5346 10.4128 23.824 10.1868 24.1866C9.70823 24.9313 9.46829 25.909 9.46699 27.1196C9.44295 27.4887 9.47969 27.8602 9.57463 28.2083C9.66957 28.5563 9.82041 28.8724 10.0166 29.1344C10.2127 29.3963 10.4494 29.5977 10.7101 29.7245C10.9707 29.8513 11.249 29.9003 11.5254 29.8682C11.8783 29.8813 12.2289 29.7874 12.5507 29.5935C12.8725 29.3995 13.1572 29.1106 13.3833 28.7485Z" fill="#E03111"/>
<path d="M32.706 19.0765L30.5484 33.5443H26.9569L27.1709 32.0531C26.7194 32.6244 26.1851 33.0664 25.6009 33.352C25.0285 33.634 24.4231 33.7782 23.813 33.7781C22.6262 33.7781 21.6833 33.3511 20.9842 32.4973C20.2851 31.6434 19.9349 30.425 19.9336 28.842C19.9347 28.2406 19.9816 27.6408 20.0737 27.0521L21.2741 19.0713H25.0717L23.9511 26.5715C23.8993 26.8969 23.8726 27.2286 23.8713 27.5613C23.8713 28.8238 24.3577 29.4551 25.3305 29.4551C25.6274 29.4687 25.9234 29.4039 26.2015 29.2643C26.4796 29.1248 26.7344 28.9133 26.9511 28.642C27.3765 28.0999 27.6697 27.2945 27.8305 26.2259L28.9025 19.0765H32.706Z" fill="#E03111"/>
<path d="M38.0095 28.1796C37.9895 28.3351 37.9765 28.4922 37.9705 28.6498C37.9705 29.45 38.2948 29.85 38.9433 29.85C39.335 29.8352 39.7179 29.6915 40.0581 29.4318L40.5289 32.8532C39.7974 33.4126 38.8778 33.6915 37.7702 33.6897C36.6625 33.688 35.7922 33.3226 35.1593 32.5934C34.5108 31.8608 34.1865 30.8416 34.1865 29.5357C34.1825 29.0889 34.2151 28.6429 34.2838 28.2056L34.9881 23.5293H33.4316L33.9997 19.8195H35.5309L36.0834 16.1097H39.8266L39.2741 19.8195H41.667L41.1184 23.5293H38.7137L38.0095 28.1796Z" fill="#E03111"/>
<path d="M44.6128 33.1364C43.8 32.6393 43.1126 31.8379 42.6342 30.8295C42.1591 29.7857 41.9174 28.5824 41.9377 27.3613C41.9188 25.8698 42.2113 24.4007 42.7824 23.1187C43.3535 21.8367 44.1806 20.7924 45.1712 20.1027C46.2233 19.3617 47.3981 18.9856 48.5875 19.009C49.6198 18.9781 50.6441 19.256 51.5856 19.8221C52.3967 20.3178 53.0837 21.1151 53.5642 22.1187C54.0402 23.1572 54.2826 24.3566 54.2626 25.5739C54.2782 27.0653 53.9853 28.5335 53.4162 29.817C52.8471 31.1004 52.0238 32.1493 51.0369 32.848C49.9817 33.5932 48.8024 33.9695 47.6089 33.9418C46.5776 33.9763 45.5537 33.7011 44.6128 33.1364ZM49.6867 28.7485C50.1666 28.0003 50.4066 27.0304 50.4066 25.8389C50.4213 25.4703 50.3812 25.1016 50.2887 24.7538C50.1962 24.406 50.0531 24.0861 49.8677 23.8125C49.6705 23.5558 49.4355 23.3568 49.1776 23.2279C48.9197 23.0991 48.6445 23.0434 48.3696 23.0643C48.0162 23.0511 47.6651 23.1453 47.3429 23.3397C47.0207 23.5341 46.7358 23.8237 46.5097 24.1866C46.0311 24.9313 45.7918 25.909 45.7918 27.1196C45.7763 27.4867 45.816 27.8542 45.9085 28.2004C46.0011 28.5467 46.1446 28.8646 46.3307 29.1356C46.5297 29.3879 46.7652 29.5831 47.0229 29.7091C47.2805 29.8352 47.5548 29.8893 47.8288 29.8682C48.1817 29.8814 48.5323 29.7874 48.8541 29.5935C49.1759 29.3995 49.4606 29.1106 49.6867 28.7485Z" fill="#E03111"/>
<path d="M65.6164 22.3317L59.7798 29.8344H64.7701L64.1456 33.9158H54.165L54.6067 30.91L60.6728 23.1578H55.9452L56.4958 19.448H66.0619L65.6164 22.3317Z" fill="#E03111"/>
<path d="M76.119 21.7497L73.2299 25.2205C73.8921 25.4369 74.4876 25.9225 74.9342 26.6104C75.3416 27.2831 75.5562 28.1278 75.5392 28.9927C75.5468 30.0106 75.2966 31.0021 74.8291 31.8062C74.3179 32.6703 73.6475 33.3425 72.8836 33.7573C71.9931 34.247 71.0372 34.4892 70.0743 34.4691C69.2851 34.4752 68.4993 34.3336 67.7396 34.0482C67.0526 33.7966 66.4068 33.3764 65.835 32.809L67.3194 29.7695C67.7356 30.1843 68.2031 30.4982 68.7007 30.6969C69.2153 30.9108 69.7512 31.0194 70.2902 31.0191C71.2552 31.0191 71.8888 30.6848 72.191 30.0163C72.2369 29.9145 72.2691 29.8029 72.2863 29.6864C72.4692 28.5485 71.9815 27.9795 70.8233 27.9795H69.4731L69.8739 25.3037L72.2766 22.4148H67.9536L68.4595 19.0765H76.5081L76.119 21.7497Z" fill="#1D1D1B"/>
<path d="M83.9395 25.0387C84.4548 25.3538 84.8956 25.8516 85.2138 26.478C85.5428 27.1445 85.7105 27.9298 85.6944 28.7278C85.7126 29.727 85.5096 30.7111 85.1107 31.5569C84.7129 32.3712 84.1503 33.018 83.4881 33.4222C82.7506 33.8725 81.9468 34.0963 81.136 34.0769C80.3233 34.0988 79.518 33.8675 78.7839 33.4014C78.1149 32.9634 77.5603 32.2663 77.1924 31.401C76.7905 30.4095 76.5924 29.2935 76.6185 28.1666C76.6204 26.6684 76.8688 25.1891 77.3461 23.8333C77.8405 22.4181 78.6215 21.2158 79.601 20.3625C80.6204 19.4515 81.8753 18.996 83.3656 18.996C83.9826 18.9911 84.5978 19.0844 85.1982 19.274C85.695 19.4201 86.1681 19.6841 86.5951 20.0533L85.1982 22.9604C84.5993 22.4593 83.9005 22.2129 83.1944 22.2538C82.3461 22.2538 81.658 22.5482 81.1302 23.137C80.5875 23.7557 80.2026 24.5847 80.029 25.5089C80.5971 24.875 81.337 24.5572 82.2488 24.5555C82.8323 24.5461 83.41 24.7112 83.9395 25.0387ZM82.2099 30.6112C82.3605 30.4224 82.4786 30.1923 82.5562 29.9366C82.6338 29.681 82.669 29.406 82.6593 29.1304C82.6681 28.9057 82.6393 28.6812 82.575 28.4731C82.5107 28.2651 82.4126 28.0787 82.2878 27.9276C82.0031 27.6205 81.6434 27.465 81.278 27.4911C80.8573 27.4697 80.4462 27.6629 80.1282 28.0315C79.9805 28.2078 79.8637 28.4254 79.7861 28.6687C79.7084 28.912 79.6718 29.1752 79.6788 29.4396C79.6735 29.6686 79.7039 29.8967 79.7682 30.1091C79.8325 30.3216 79.9293 30.5138 80.0523 30.6736C80.1924 30.8434 80.3564 30.9741 80.5348 31.058C80.7133 31.1418 80.9024 31.1772 81.0912 31.162C81.5034 31.1778 81.9041 30.9805 82.2099 30.6112Z" fill="#1D1D1B"/>
<path d="M90.9376 22.4148L90.4648 24.6413H90.9648C92.35 24.6413 93.4051 25.0024 94.1302 25.7246C94.8552 26.4468 95.2177 27.4946 95.2177 28.8681C95.2342 29.9549 94.9864 31.0195 94.5115 31.9024C94.0154 32.7972 93.3414 33.4884 92.566 33.8976C91.6629 34.3776 90.6974 34.6134 89.7255 34.5913C88.9298 34.5987 88.1373 34.4561 87.3714 34.1678C86.68 33.9166 86.03 33.4945 85.4551 32.9234L86.9492 29.8657C87.3674 30.2821 87.8368 30.5978 88.3364 30.7983C88.8543 31.0129 89.3934 31.1223 89.9356 31.1231C90.5841 31.1231 91.0874 30.968 91.4453 30.658C91.6135 30.5251 91.7519 30.3346 91.8463 30.1062C91.9408 29.8778 91.9877 29.6199 91.9823 29.3591C91.9886 29.1496 91.9516 28.9419 91.8755 28.7586C91.7993 28.5754 91.6868 28.4236 91.5504 28.3199C91.2638 28.0809 90.8014 27.9614 90.1633 27.9614H86.9998L88.9064 19.0583H95.7819L95.2761 22.3967L90.9376 22.4148Z" fill="#1D1D1B"/>
<path d="M4 18.2841C4 18.2841 6.27627 14.512 10.6537 12.6467C15.1887 10.7164 21.5837 10.7658 32.4903 11.0048C32.8064 11.0131 33.117 10.8935 33.3813 10.6619C35.1206 9.1317 42.1148 3.12793 46.4436 1.37434C53.609 -1.50935 62.5759 0.594963 72.4261 3.71246C82.3308 6.82995 92.9806 10.3293 101.302 8.53158C101.302 8.53158 96.8269 12.9039 89.0662 13.2598C81.8677 13.5923 76.4027 13.8989 76.4027 13.8989C76.4027 13.8989 87.1693 12.044 90.4105 10.7372C90.4105 10.7372 88.2374 10.1579 84.6518 9.09793C81.6673 8.21464 77.5584 6.94686 74.2743 5.85574C59.3346 0.878136 54.3483 1.03401 51.0817 1.57178C46.6829 2.29659 42.7296 4.05019 33.7276 12.3739C33.4537 12.6272 33.1246 12.7523 32.7918 12.7298C16.6576 11.6231 9.8716 12.8285 4 18.2841Z" fill="#E03111"/>
<path d="M66.6285 8.06909L62.755 12.4336C62.562 12.6518 62.3172 12.7715 62.0643 12.7713H37.3406C37.2072 12.7714 37.0774 12.7137 36.9707 12.607C36.8639 12.5002 36.786 12.3501 36.7485 12.1792C36.711 12.0083 36.716 11.8257 36.7628 11.659C36.8096 11.4922 36.8956 11.3501 37.0079 11.2541C39.1483 9.41748 41.3631 7.74014 43.6422 6.22977C47.5332 3.75396 51.9924 2.28354 60.9243 3.8319C66.0604 4.73341 71.1465 6.08464 76.1499 7.87685C76.2322 7.90691 76.3075 7.9645 76.3685 8.04416C76.4295 8.12383 76.4743 8.22295 76.4986 8.33216C76.5229 8.44138 76.526 8.55707 76.5076 8.66832C76.4891 8.77957 76.4497 8.88271 76.3931 8.96797L75.6363 10.1162C75.2823 10.654 74.7915 10.9974 74.2589 11.0801L67.2861 12.153L72.7569 10.5943C72.894 10.5551 73.0237 10.4797 73.1387 10.3727C73.2536 10.2656 73.3513 10.1289 73.4262 9.97076L74.146 8.44319C74.1718 8.38895 74.1876 8.32735 74.1922 8.26341C74.1967 8.19947 74.1899 8.13499 74.1723 8.07523C74.1546 8.01548 74.1267 7.96213 74.0907 7.91953C74.0547 7.87693 74.0117 7.84628 73.9651 7.83009C69.3154 6.23138 64.5909 5.04929 59.8231 4.29173C55.6188 3.60328 52.0994 3.57211 48.969 4.42422C45.2083 5.4452 42.0021 7.67421 38.8328 10.6774C38.8019 10.707 38.7767 10.746 38.7593 10.7911C38.7419 10.8363 38.7329 10.8864 38.7329 10.9372C38.7329 10.988 38.7419 11.038 38.7593 11.0832C38.7767 11.1284 38.8019 11.1674 38.8328 11.197C39.1616 11.5295 39.8386 12.0257 40.9515 12.0257H61.8192C62.1839 12.0256 62.5397 11.876 62.8387 11.5971L66.6285 8.06909Z" fill="#E03111"/>
<path d="M96.498 13.543L98.6031 15.1017C99.0141 15.4059 99.4577 15.6241 99.9183 15.7486L104.004 16.8423H99.4047C99.2044 16.8424 99.0064 16.7867 98.8232 16.6789C98.64 16.5711 98.4756 16.4135 98.3405 16.2162L96.498 13.543Z" fill="#E03111"/>
<path opacity="0.25" d="M76.4023 13.8833C76.4023 13.8833 81.8654 13.5767 89.0658 13.2442C96.8265 12.8883 101.301 8.51599 101.301 8.51599C101.301 8.51599 95.7409 10.5943 90.8167 11.5789C85.8926 12.5635 76.4023 13.8833 76.4023 13.8833Z" fill="#E03111"/>
<path opacity="0.25" d="M96.498 13.543L98.3405 16.2266C98.4754 16.4242 98.6398 16.5819 98.823 16.6897C99.0063 16.7976 99.2044 16.8531 99.4047 16.8527H100.183L96.498 13.543Z" fill="#E03111"/>
<path opacity="0.25" d="M32.7938 12.7298C33.1266 12.7523 33.4556 12.6272 33.7296 12.3739C42.7315 4.06059 46.6848 2.2966 51.0837 1.57179C52.7198 1.31199 54.7802 1.13014 58.3113 1.64453C49.963 0.205284 45.1945 2.546 41.4922 5.2816C38.1848 7.72104 33.428 11.8829 33.428 11.8829C33.428 11.8829 33.0603 11.8543 20.9475 11.6699C8.83463 11.4854 4 18.2842 4 18.2842C9.8716 12.8285 16.6576 11.6231 32.7938 12.7298Z" fill="#E03111"/>
</g>
<defs>
<filter id="filter0_d_169_2880" x="0" y="0" width="108" height="42.5912" filterUnits="userSpaceOnUse" color-interpolation-filters="sRGB">
<feFlood flood-opacity="0" result="BackgroundImageFix"/>
<feColorMatrix in="SourceAlpha" type="matrix" values="0 0 0 0 0 0 0 0 0 0 0 0 0 0 0 0 0 0 127 0" result="hardAlpha"/>
<feOffset dy="4"/>
<feGaussianBlur stdDeviation="2"/>
<feComposite in2="hardAlpha" operator="out"/>
<feColorMatrix type="matrix" values="0 0 0 0 0 0 0 0 0 0 0 0 0 0 0 0 0 0 0.25 0"/>
<feBlend mode="normal" in2="BackgroundImageFix" result="effect1_dropShadow_169_2880"/>
<feBlend mode="normal" in="SourceGraphic" in2="effect1_dropShadow_169_2880" result="shape"/>
</filter>
<clipPath id="clip0_169_2880">
<rect width="100" height="34.5912" fill="white" transform="translate(4)"/>
</clipPath>
</defs>
</svg>
