<svg width="15" height="15" viewBox="0 0 15 15" fill="none" xmlns="http://www.w3.org/2000/svg">
<path d="M7.5 7.5C7.84375 7.5 8.13813 7.3775 8.38313 7.1325C8.62771 6.88792 8.75 6.59375 8.75 6.25C8.75 5.90625 8.62771 5.61188 8.38313 5.36687C8.13813 5.12229 7.84375 5 7.5 5C7.15625 5 6.86208 5.12229 6.6175 5.36687C6.3725 5.61188 6.25 5.90625 6.25 6.25C6.25 6.59375 6.3725 6.88792 6.6175 7.1325C6.86208 7.3775 7.15625 7.5 7.5 7.5ZM7.5 13.75C5.82292 12.3229 4.57042 10.9973 3.7425 9.77312C2.91417 8.54938 2.5 7.41667 2.5 6.375C2.5 4.8125 3.00271 3.56771 4.00813 2.64062C5.01313 1.71354 6.17708 1.25 7.5 1.25C8.82292 1.25 9.98688 1.71354 10.9919 2.64062C11.9973 3.56771 12.5 4.8125 12.5 6.375C12.5 7.41667 12.086 8.54938 11.2581 9.77312C10.4298 10.9973 9.17708 12.3229 7.5 13.75Z" fill="white"/>
</svg>
