<svg width="30" height="30" viewBox="0 0 30 30" fill="none" xmlns="http://www.w3.org/2000/svg">
<path d="M23.4426 17.7568V10.3573C23.4429 10.2874 23.4247 10.2186 23.3899 10.158C23.355 10.0974 23.3048 10.047 23.2442 10.0121L13.6228 4.45745C13.5625 4.42263 13.4941 4.4043 13.4244 4.4043C13.3548 4.4043 13.2864 4.42263 13.2261 4.45745L3.60463 10.0121C3.54409 10.047 3.49385 10.0974 3.45901 10.158C3.42418 10.2186 3.40598 10.2874 3.40625 10.3573V21.4665C3.40598 21.5364 3.42418 21.6052 3.45901 21.6658C3.49385 21.7264 3.54409 21.7768 3.60463 21.8117L13.2261 27.3663C13.2864 27.4012 13.3548 27.4195 13.4244 27.4195C13.4941 27.4195 13.5625 27.4012 13.6228 27.3663L17.2373 25.2794C17.6878 25.9106 18.2775 26.4297 18.9608 26.7965C19.6441 27.1633 20.4026 27.3679 21.1777 27.3946C21.9527 27.4213 22.7235 27.2693 23.4304 26.9503C24.1373 26.6314 24.7613 26.1541 25.2541 25.5553C25.747 24.9566 26.0955 24.2525 26.2726 23.4975C26.4498 22.7425 26.4508 21.9568 26.2757 21.2014C26.1005 20.4459 25.7539 19.7408 25.2627 19.1408C24.7714 18.5407 24.1486 18.0618 23.4426 17.741V17.7568ZM13.4244 5.25891L22.2523 10.3573L17.8245 12.9124L9.62744 7.45299L13.4244 5.25891ZM13.4244 15.4556L4.59653 10.3573L8.8617 7.89339L17.0548 13.3568L13.4244 15.4556ZM16.3009 22.3592C16.3019 23.1359 16.4825 23.9017 16.8286 24.597L13.8212 26.3348V16.142L17.392 14.067V17.1577C17.392 17.263 17.4338 17.3639 17.5082 17.4383C17.5826 17.5127 17.6836 17.5545 17.7888 17.5545C17.894 17.5545 17.9949 17.5127 18.0693 17.4383C18.1437 17.3639 18.1855 17.263 18.1855 17.1577V13.6107L22.6293 11.0437V17.4751C22.209 17.3603 21.7754 17.3016 21.3398 17.3006C20.0019 17.3068 18.7209 17.8425 17.7767 18.7904C16.8326 19.7383 16.302 21.0213 16.3009 22.3592ZM23.8394 20.7722L21.1017 24.4184C21.066 24.4661 21.02 24.5052 20.9671 24.5326C20.9142 24.5601 20.8558 24.5753 20.7962 24.5771C20.7389 24.5771 20.6823 24.5647 20.6302 24.5408C20.5782 24.5168 20.5319 24.4818 20.4947 24.4383L18.8799 22.5418C18.812 22.4613 18.7789 22.3571 18.7878 22.2522C18.7967 22.1473 18.847 22.0502 18.9275 21.9823C19.008 21.9144 19.1121 21.8813 19.2171 21.8903C19.322 21.8992 19.419 21.9494 19.4869 22.0299L20.7764 23.5456L23.2442 20.3001C23.2748 20.256 23.3139 20.2186 23.3593 20.1902C23.4046 20.1617 23.4553 20.1427 23.5082 20.1343C23.5612 20.1259 23.6152 20.1283 23.6672 20.1414C23.7191 20.1545 23.7679 20.178 23.8105 20.2104C23.8532 20.2429 23.8888 20.2836 23.9153 20.3302C23.9417 20.3768 23.9585 20.4283 23.9645 20.4815C23.9705 20.5347 23.9657 20.5886 23.9503 20.64C23.935 20.6913 23.9094 20.739 23.8751 20.7801L23.8394 20.7722Z" fill="white"/>
</svg>
