<svg width="30" height="30" viewBox="0 0 30 30" fill="none" xmlns="http://www.w3.org/2000/svg">
<path d="M23.1042 7.5375C24.3745 7.5375 25.4042 6.50775 25.4042 5.2375C25.4042 3.96724 24.3745 2.9375 23.1042 2.9375C21.8339 2.9375 20.8042 3.96724 20.8042 5.2375C20.8042 6.50775 21.8339 7.5375 23.1042 7.5375Z" fill="white"/>
<path d="M8.5375 14.0543L10.4542 12.1376L5.85417 7.5376L3.9375 9.45426V12.9043L16.9708 25.9376H20.4208L22.3375 24.0209L17.7375 19.4209L15.8208 21.3376L8.5375 14.0543Z" fill="white"/>
<path d="M15.4376 12.1377V12.9044H16.4289L14.3999 14.9333L14.9419 15.4754L16.9709 13.4464V14.4377H17.7376V12.1377H15.4376Z" fill="white"/>
<path d="M12.864 16.4658L13.6306 15.6993L14.1727 16.2414L13.4061 17.0079L12.864 16.4658Z" fill="white"/>
<path d="M23.1041 7.5376C20.9869 7.5376 19.2708 9.25378 19.2708 11.3709V13.2876H26.9374V11.3709C26.9374 9.25378 25.2212 7.5376 23.1041 7.5376ZM23.4874 10.9876H22.7208V10.2209H23.4874V10.9876ZM23.4874 9.45426H22.7208V8.6876H23.4874V9.45426Z" fill="white"/>
</svg>
