<svg width="30" height="30" viewBox="0 0 30 30" fill="none" xmlns="http://www.w3.org/2000/svg">
<path d="M14.5275 16.3226C17.777 16.3226 20.4112 13.6884 20.4112 10.4389C20.4112 7.18941 17.777 4.55518 14.5275 4.55518C11.278 4.55518 8.6438 7.18941 8.6438 10.4389C8.6438 13.6884 11.278 16.3226 14.5275 16.3226Z" fill="white"/>
<path d="M20.9463 18.1348C18.8431 18.1348 17.1357 19.8421 17.1357 21.9453C17.1357 24.0484 18.8431 25.7569 20.9463 25.7569C23.0494 25.7569 24.7578 24.0484 24.7578 21.9453C24.7578 19.8421 23.0494 18.1348 20.9463 18.1348ZM20.9463 19.7394C22.1636 19.7394 23.1532 20.7279 23.1532 21.9453C23.1532 23.1627 22.1636 24.1522 20.9463 24.1522C19.7289 24.1522 18.7393 23.1627 18.7393 21.9453C18.7393 20.7279 19.7289 19.7394 20.9463 19.7394Z" fill="white"/>
<path d="M21.7484 18.9361V17.1314C21.7484 16.6885 21.389 16.3291 20.9461 16.3291C20.5032 16.3291 20.1438 16.6885 20.1438 17.1314V18.9372C20.1438 19.379 20.5032 19.7395 20.9461 19.7395C21.389 19.7385 21.7484 19.379 21.7484 18.9361Z" fill="white"/>
<path d="M23.641 20.3856L24.9173 19.1083C25.2307 18.7959 25.2307 18.2867 24.9173 17.9743C24.6049 17.6609 24.0957 17.6609 23.7833 17.9743L22.506 19.2506C22.1936 19.564 22.1936 20.0722 22.506 20.3856C22.8194 20.698 23.3276 20.698 23.641 20.3856Z" fill="white"/>
<path d="M23.9546 22.7477H25.7603C26.2032 22.7477 26.5627 22.3883 26.5627 21.9454C26.5627 21.5025 26.2032 21.1431 25.7603 21.1431H23.9546C23.5128 21.1431 23.1533 21.5025 23.1533 21.9454C23.1523 22.3883 23.5128 22.7477 23.9546 22.7477Z" fill="white"/>
<path d="M22.506 24.6398L23.7833 25.916C24.0957 26.2295 24.6049 26.2295 24.9173 25.916C25.2307 25.6037 25.2307 25.0945 24.9173 24.7821L23.641 23.5048C23.3276 23.1924 22.8194 23.1924 22.506 23.5048C22.1936 23.8182 22.1936 24.3264 22.506 24.6398Z" fill="white"/>
<path d="M20.1438 24.9537V26.7595C20.1438 27.2023 20.5032 27.5618 20.9461 27.5618C21.389 27.5618 21.7484 27.2023 21.7484 26.7595V24.9537C21.7484 24.5119 21.389 24.1524 20.9461 24.1514C20.5032 24.1514 20.1438 24.5119 20.1438 24.9537Z" fill="white"/>
<path d="M18.2513 23.5048L16.9751 24.7821C16.6616 25.0945 16.6616 25.6037 16.9751 25.916C17.2874 26.2295 17.7967 26.2295 18.109 25.916L19.3863 24.6398C19.6987 24.3264 19.6987 23.8182 19.3863 23.5048C19.0729 23.1924 18.5647 23.1924 18.2513 23.5048Z" fill="white"/>
<path d="M17.9369 21.1431H16.1322C15.6893 21.1431 15.3298 21.5025 15.3298 21.9454C15.3298 22.3883 15.6893 22.7477 16.1322 22.7477H17.9369C18.3797 22.7477 18.7403 22.3883 18.7392 21.9454C18.7392 21.5025 18.3797 21.1431 17.9369 21.1431Z" fill="white"/>
<path d="M19.3863 19.2506L18.109 17.9743C17.7967 17.6609 17.2874 17.6609 16.9751 17.9743C16.6616 18.2867 16.6616 18.7959 16.9751 19.1083L18.2513 20.3856C18.5647 20.698 19.0729 20.698 19.3863 20.3856C19.6987 20.0722 19.6987 19.564 19.3863 19.2506Z" fill="white"/>
<path d="M16.0638 26.4986C15.4925 25.7647 15.5439 24.7003 16.2189 24.0264L16.4265 23.8178H16.1323C15.0989 23.8178 14.2602 22.9791 14.2602 21.9457C14.2602 20.9123 15.0989 20.0736 16.1323 20.0736H16.4265L16.2189 19.865C15.5172 19.1643 15.4893 18.0421 16.1355 17.3072C15.6113 17.2665 15.0743 17.2451 14.5276 17.2451C10.9738 17.2451 7.82766 18.1341 5.87427 19.466C4.38408 20.4822 3.5625 21.7734 3.5625 23.1288V24.68C3.5625 25.1625 3.75399 25.6257 4.09524 25.9659C4.4365 26.3071 4.89864 26.4986 5.3811 26.4986H16.0638Z" fill="white"/>
</svg>
