<svg width="30" height="30" viewBox="0 0 30 30" fill="none" xmlns="http://www.w3.org/2000/svg">
<path d="M23.8826 12.6609H23.3943C23.2357 12.1645 23.0356 11.6823 22.7958 11.2191L23.1416 10.8733C23.9801 10.0357 23.9576 8.69343 23.1419 7.87855L22.1217 6.85837C21.3073 6.04291 19.9648 6.01928 19.127 6.85806L18.7809 7.20414C18.3176 6.96443 17.8354 6.76426 17.339 6.60564V6.1173C17.339 4.94983 16.3892 4 15.2217 4H13.7782C12.6107 4 11.6609 4.94983 11.6609 6.1173V6.60564C11.1646 6.76422 10.6823 6.96439 10.2191 7.20414L9.8733 6.85837C9.03717 6.02126 7.69469 6.04089 6.87864 6.8581L5.85833 7.87832C5.04291 8.69284 5.01932 10.0352 5.85806 10.873L6.20414 11.2191C5.96439 11.6824 5.76426 12.1645 5.60564 12.661H5.11734C3.94987 12.6609 3 13.6107 3 14.7782V16.2217C3 17.3892 3.94987 18.339 5.11734 18.339H5.60564C5.76426 18.8354 5.96439 19.3176 6.20414 19.7809L5.85833 20.1267C5.01986 20.9643 5.04232 22.3065 5.85806 23.1214L6.87828 24.1416C7.69266 24.957 9.0352 24.9807 9.87299 24.1419L10.2191 23.7958C10.6823 24.0355 11.1646 24.2357 11.6609 24.3943V24.8827C11.6609 26.0501 12.6108 27 13.7783 27H15.2217C16.3892 27 17.3391 26.0501 17.3391 24.8827V24.3943C17.8354 24.2357 18.3177 24.0356 18.7809 23.7958L19.1267 24.1416C19.9628 24.9787 21.3053 24.9591 22.1214 24.1419L23.1417 23.1216C23.9571 22.3071 23.9807 20.9647 23.1419 20.1269L22.7959 19.7808C23.0356 19.3175 23.2357 18.8354 23.3944 18.3389H23.8827C25.0501 18.3389 26 17.3891 26 16.2216V14.7781C26 13.6107 25.0501 12.6609 23.8826 12.6609ZM14.5 20.5043C11.7406 20.5043 9.49569 18.2593 9.49569 15.5C9.49569 12.7406 11.7406 10.4957 14.5 10.4957C17.2594 10.4957 19.5043 12.7406 19.5043 15.5C19.5043 18.2593 17.2594 20.5043 14.5 20.5043Z" fill="white"/>
</svg>
