<svg width="30" height="30" viewBox="0 0 30 30" fill="none" xmlns="http://www.w3.org/2000/svg">
<path d="M14.7452 15.2333C14.317 15.2333 13.9699 14.9255 13.9699 14.5459V12.0371C12.7271 12.3393 11.8113 13.3496 11.8113 14.5459C11.8113 15.9804 13.1274 17.1475 14.7452 17.1475C16.095 17.1475 17.2349 16.3354 17.5758 15.2333H14.7452Z" fill="white"/>
<path d="M17.6599 10.1401V11.9616H19.7151C19.4419 11.0789 18.6559 10.3822 17.6599 10.1401Z" fill="white"/>
<path d="M21.1696 4H4.63372C4.20555 4 3.8584 4.30776 3.8584 4.68735V23.9461C3.8584 24.3257 4.20555 24.6335 4.63372 24.6335H6.7719V7.05388C6.7719 6.67429 7.11904 6.36653 7.54722 6.36653H21.9449V4.68735C21.9449 4.30776 21.5978 4 21.1696 4Z" fill="white"/>
<path d="M8.32275 7.74121V27H24.0833C24.5115 27 24.8586 26.6922 24.8586 26.3126V7.74121H8.32275ZM16.1096 9.36047C16.1096 8.98088 16.4568 8.67312 16.8849 8.67312C19.358 8.67312 21.37 10.4566 21.37 12.6488C21.37 13.0284 21.0229 13.3362 20.5947 13.3362H16.8849C16.4568 13.3362 16.1096 13.0284 16.1096 12.6488V9.36047ZM14.7453 10.57C15.1735 10.57 15.5206 10.8777 15.5206 11.2573V13.8584H18.4551C18.8833 13.8584 19.2304 14.1661 19.2304 14.5457C19.2304 16.7382 17.2183 18.522 14.7453 18.522C12.2725 18.522 10.2608 16.7382 10.2608 14.5457C10.2607 12.3535 12.2725 10.57 14.7453 10.57ZM21.0898 24.0497H10.3542C9.92604 24.0497 9.57889 23.7419 9.57889 23.3623C9.57889 22.9828 9.92604 22.675 10.3542 22.675H21.0898C21.518 22.675 21.8652 22.9828 21.8652 23.3623C21.8652 23.742 21.518 24.0497 21.0898 24.0497ZM21.0898 21.4196H10.3542C9.92604 21.4196 9.57889 21.1118 9.57889 20.7323C9.57889 20.3527 9.92604 20.0449 10.3542 20.0449H21.0898C21.518 20.0449 21.8652 20.3527 21.8652 20.7323C21.8652 21.1118 21.518 21.4196 21.0898 21.4196Z" fill="white"/>
</svg>
