<svg width="30" height="30" viewBox="0 0 30 30" fill="none" xmlns="http://www.w3.org/2000/svg">
<path fill-rule="evenodd" clip-rule="evenodd" d="M12.5199 12.0527C13.0378 11.5449 13.2616 10.8013 13.0823 10.0812L11.5852 11.549C11.3169 11.8121 10.8818 11.8121 10.6134 11.549L9.75074 10.7032C9.48239 10.4401 9.48239 10.0135 9.75074 9.75035C10.0191 9.48725 10.4542 9.48725 10.7226 9.75035L11.0993 10.1197L12.316 8.92684C11.4694 8.28487 10.2675 8.36128 9.51121 9.1028C8.68051 9.91728 8.68051 11.2382 9.51121 12.0527C10.342 12.8672 11.6891 12.8672 12.5199 12.0527Z" fill="white"/>
<path fill-rule="evenodd" clip-rule="evenodd" d="M19.5917 4H6.59177C4.77399 4 3.29297 5.4521 3.29297 7.23438V26.3262C3.29297 26.6983 3.60072 27 3.98022 27H17.5002C17.8788 27 18.1875 26.6973 18.1875 26.3262C18.1872 19.9846 18.1834 13.6433 18.1834 7.30176C18.1834 6.05279 18.7032 4.86587 19.5917 4ZM6.04348 23.4062C5.66495 23.4062 5.35623 23.1036 5.35623 22.7324C5.35623 22.3613 5.66499 22.0586 6.04348 22.0586C6.42198 22.0586 6.73074 22.3613 6.73074 22.7324C6.73078 23.1035 6.42202 23.4062 6.04348 23.4062ZM6.04348 20.7109C5.66495 20.7109 5.35623 20.4082 5.35623 20.0371C5.35623 19.666 5.66499 19.3633 6.04348 19.3633C6.42198 19.3633 6.73074 19.666 6.73074 20.0371C6.73074 20.4083 6.42202 20.7109 6.04348 20.7109ZM6.04348 18.0156C5.66495 18.0156 5.35623 17.7129 5.35623 17.3418C5.35623 16.9707 5.66499 16.668 6.04348 16.668C6.42198 16.668 6.73074 16.9707 6.73074 17.3418C6.73074 17.7129 6.42202 18.0156 6.04348 18.0156ZM8.53944 8.1502C9.83267 6.88223 11.9037 6.80281 13.2927 7.96957L14.1556 7.12355C14.4239 6.86045 14.859 6.86045 15.1274 7.12355C15.3957 7.38666 15.3957 7.81328 15.1274 8.07639L14.1463 9.0383C14.8262 10.3645 14.5539 11.9643 13.4917 13.0058C12.1241 14.3467 9.90707 14.3467 8.53944 13.0058C7.17181 11.6649 7.17181 9.49112 8.53944 8.1502ZM15.4359 23.4062H8.79249C8.41294 23.4062 8.10524 23.1046 8.10524 22.7324C8.10524 22.3603 8.41294 22.0586 8.79249 22.0586H15.4359C15.8155 22.0586 16.1232 22.3603 16.1232 22.7324C16.1232 23.1046 15.8155 23.4062 15.4359 23.4062ZM15.4359 20.7109H8.79249C8.41294 20.7109 8.10524 20.4092 8.10524 20.0371C8.10524 19.665 8.41294 19.3633 8.79249 19.3633H15.4359C15.8155 19.3633 16.1232 19.665 16.1232 20.0371C16.1232 20.4092 15.8155 20.7109 15.4359 20.7109ZM15.4359 18.0156H8.79249C8.41294 18.0156 8.10524 17.7139 8.10524 17.3418C8.10524 16.9697 8.41294 16.668 8.79249 16.668H15.4359C15.8155 16.668 16.1232 16.9697 16.1232 17.3418C16.1232 17.7139 15.8155 18.0156 15.4359 18.0156Z" fill="white"/>
<path fill-rule="evenodd" clip-rule="evenodd" d="M25.3042 4.96937C24.6942 4.37128 23.8522 4 22.9254 4C21.9986 4 21.1565 4.37123 20.5465 4.96937C19.9365 5.56746 19.5579 6.39308 19.5579 7.30176V15.7694C19.5579 16.1416 19.8656 16.4433 20.2451 16.4433H25.6057C25.9852 16.4433 26.2929 16.1416 26.2929 15.7694V7.30176C26.2929 6.39312 25.9142 5.5675 25.3042 4.96937Z" fill="white"/>
</svg>
