<svg width="30" height="30" viewBox="0 0 30 30" fill="none" xmlns="http://www.w3.org/2000/svg">
<path fill-rule="evenodd" clip-rule="evenodd" d="M9.16072 24.0796H19.8393V25.9463H9.16072V24.0796ZM9.16072 20.3463H19.8393V22.2129H9.16072V20.3463ZM9.16072 16.6129H19.8393V18.4796H9.16072V16.6129ZM21.4794 25.9463V15.6796C21.4794 15.1641 21.1116 14.7462 20.658 14.7462H8.34197C7.88849 14.7462 7.5208 15.1638 7.52053 15.679L7.5151 25.9457V25.9463H4.64558C3.73681 25.9463 3 25.1083 3 24.0762V11.4831C3 10.5796 3.55245 9.66381 4.29451 9.33954L14.2051 5.0085C14.3949 4.92555 14.605 4.92555 14.7948 5.0085L24.7054 9.33954C25.4469 9.66356 26 10.5803 26 11.4831V24.0762C26 25.1085 25.2619 25.9463 24.3544 25.9463H21.4794Z" fill="white"/>
</svg>
