<svg width="50" height="50" viewBox="0 0 50 50" fill="none" xmlns="http://www.w3.org/2000/svg">
<path d="M44.2915 39.3823V18.1772L24.9999 9.039L5.70825 18.1772V39.3823H44.2915Z" fill="#FAFAEF" stroke="black"/>
<path d="M41 16V39H44V17.3634L41 16Z" fill="#F2E4C8"/>
<mask id="mask0_28_1761" style="mask-type:luminance" maskUnits="userSpaceOnUse" x="0" y="0" width="50" height="50">
<path d="M0 3.8147e-06H50V50H0V3.8147e-06Z" fill="white"/>
</mask>
<g mask="url(#mask0_28_1761)">
<path d="M3.0455 19.3502L3.04549 19.3502C2.55914 19.5806 1.97797 19.373 1.74754 18.8866L1.74753 18.8866L1.32657 17.9981C1.32656 17.9981 1.32654 17.998 1.32653 17.998C1.0962 17.5116 1.30372 16.9304 1.79016 16.7L1.79019 16.7L23.2487 6.53546L23.0346 6.08359L23.2487 6.53546C24.3572 6.01038 25.6428 6.01038 26.7513 6.53546L26.9653 6.08359L26.7513 6.53546L48.2098 16.7L48.4238 16.2481L48.2098 16.7C48.6963 16.9304 48.9038 17.5117 48.6734 17.998L49.1253 18.2121L48.6734 17.9981L48.2525 18.8866M3.0455 19.3502L48.2525 18.8866M3.0455 19.3502L23.6317 9.59882C24.4977 9.18855 25.5021 9.18853 26.3681 9.59881C26.3681 9.59882 26.3681 9.59883 26.3682 9.59883M3.0455 19.3502L26.3682 9.59883M48.2525 18.8866C48.0221 19.373 47.4409 19.5806 46.9544 19.3502L26.3682 9.59883M48.2525 18.8866L26.3682 9.59883" fill="#E98583" stroke="black"/>
<path d="M13.3203 25.494V39.3823H36.6801V25.494C36.6801 24.9612 36.2481 24.5292 35.7152 24.5292H14.2852C13.7522 24.5292 13.3203 24.9612 13.3203 25.494Z" fill="#9D91A0" stroke="black"/>
<path d="M1.23242 41.3474V42.8936C1.23242 43.4265 1.6644 43.8584 2.19727 43.8584H47.8027C48.3356 43.8584 48.7676 43.4265 48.7676 42.8936V41.3474C48.7676 40.8145 48.3356 40.3825 47.8027 40.3825H2.19727C1.66442 40.3825 1.23242 40.8145 1.23242 41.3474Z" fill="#DC9465" stroke="black"/>
<path d="M34.6667 25H32C32.7364 25 33.3333 25.5792 33.3333 26.2936V39H36V26.2936C36 25.5792 35.403 25 34.6667 25Z" fill="#877D89"/>
<path d="M47.8027 40.3825H46.5851C46.746 40.6675 46.8379 40.9967 46.8379 41.3474V42.8936C46.8379 43.2442 46.7461 43.5734 46.5851 43.8584H47.8027C48.3357 43.8584 48.7676 43.4265 48.7676 42.8936V41.3474C48.7676 40.8145 48.3357 40.3825 47.8027 40.3825Z" fill="#D78C57" stroke="black"/>
<path d="M28.3073 18.4271L28.3073 18.427C27.8286 17.0611 26.5279 16.0828 25 16.0828C23.4722 16.0828 22.1715 17.0611 21.6927 18.427C21.579 18.7514 21.8185 19.0864 22.1568 19.0864H27.8432C28.1816 19.0864 28.4211 18.7514 28.3073 18.4271Z" fill="#C2BBC5" stroke="black"/>
</g>
</svg>
