<svg width="120" height="120" viewBox="0 0 120 120" fill="none" xmlns="http://www.w3.org/2000/svg">
<g filter="url(#filter0_d_187_1083)">
<circle cx="60" cy="56" r="50" fill="#03B45F"/>
</g>
<path d="M60 31C52.7306 31 46.8164 36.9142 46.8164 44.1836C46.8164 51.453 52.7306 57.3672 60 57.3672C67.2694 57.3672 73.1836 51.453 73.1836 44.1836C73.1836 36.9142 67.2694 31 60 31ZM76.4029 65.98C72.7936 62.3151 68.0087 60.2969 62.9297 60.2969H57.0703C51.9914 60.2969 47.2064 62.3151 43.5971 65.98C40.0054 69.6269 38.0273 74.4407 38.0273 79.5352C38.0273 80.3441 38.6832 81 39.4922 81H80.5078C81.3168 81 81.9727 80.3441 81.9727 79.5352C81.9727 74.4407 79.9946 69.6269 76.4029 65.98Z" fill="white"/>
<defs>
<filter id="filter0_d_187_1083" x="0" y="0" width="120" height="120" filterUnits="userSpaceOnUse" color-interpolation-filters="sRGB">
<feFlood flood-opacity="0" result="BackgroundImageFix"/>
<feColorMatrix in="SourceAlpha" type="matrix" values="0 0 0 0 0 0 0 0 0 0 0 0 0 0 0 0 0 0 127 0" result="hardAlpha"/>
<feOffset dy="4"/>
<feGaussianBlur stdDeviation="5"/>
<feComposite in2="hardAlpha" operator="out"/>
<feColorMatrix type="matrix" values="0 0 0 0 0 0 0 0 0 0 0 0 0 0 0 0 0 0 0.25 0"/>
<feBlend mode="normal" in2="BackgroundImageFix" result="effect1_dropShadow_187_1083"/>
<feBlend mode="normal" in="SourceGraphic" in2="effect1_dropShadow_187_1083" result="shape"/>
</filter>
</defs>
</svg>
