<svg width="67" height="67" viewBox="0 0 67 67" fill="none" xmlns="http://www.w3.org/2000/svg">
<circle opacity="0.1" cx="25" cy="25" r="25" fill="black"/>
<path d="M47.259 31.5041H28.6818C27.8709 31.5041 27.2136 32.1614 27.2136 32.9723C27.2136 33.7831 27.8709 34.4404 28.6818 34.4404H47.259C48.0699 34.4404 48.7272 33.7831 48.7272 32.9723C48.7272 32.1614 48.0698 31.5041 47.259 31.5041ZM47.259 37.1675H28.6818C27.8709 37.1675 27.2136 37.8248 27.2136 38.6356C27.2136 39.4465 27.8709 40.1038 28.6818 40.1038H47.259C48.0699 40.1038 48.7272 39.4465 48.7272 38.6356C48.7271 37.8248 48.0698 37.1675 47.259 37.1675ZM47.259 43.057H28.6818C27.8709 43.057 27.2136 43.7144 27.2136 44.5252C27.2136 45.336 27.8709 45.9934 28.6818 45.9934H47.259C48.0699 45.9934 48.7272 45.336 48.7272 44.5252C48.7271 43.7145 48.0698 43.057 47.259 43.057ZM36.1516 48.9017H28.6819C27.871 48.9017 27.2137 49.559 27.2137 50.3698C27.2137 51.1807 27.871 51.838 28.6819 51.838H36.1516C36.9625 51.838 37.6198 51.1807 37.6198 50.3698C37.6198 49.559 36.9624 48.9017 36.1516 48.9017Z" fill="#FF0000"/>
<path d="M54.6033 48.0575V21.1391C54.6033 18.8567 52.7465 17 50.4643 17H31.062C30.6654 17 30.2918 17.1538 30.0052 17.4376L21.7751 25.6647C21.6358 25.8032 21.5254 25.9679 21.4502 26.1493C21.3751 26.3308 21.3366 26.5253 21.3372 26.7217V56.1322C21.3372 58.4146 23.1939 60.2713 25.4762 60.2713H44.0272C45.2257 64.1632 48.8551 67 53.135 67C58.3886 67 62.6628 62.7259 62.6628 57.4722C62.663 52.7177 59.1625 48.7656 54.6033 48.0575ZM29.5939 22.0007V25.2536H26.3398L29.5939 22.0007ZM43.6091 57.3351H25.4763C24.8131 57.3351 24.2736 56.7956 24.2736 56.1323V28.1899H31.062C31.8728 28.1899 32.5301 27.5326 32.5301 26.7218C32.5301 26.7103 32.5287 26.699 32.5284 26.6876C32.5287 26.6762 32.5301 26.6649 32.5301 26.6534V19.9363H50.4643C51.1274 19.9363 51.667 20.4758 51.667 21.1391V48.0575C47.1519 48.7588 43.6758 52.642 43.6091 57.3351ZM53.1351 64.0637C49.5005 64.0637 46.5437 61.1067 46.5437 57.4722C46.5437 53.8376 49.5005 50.8808 53.1351 50.8808C56.7697 50.8808 59.7266 53.8376 59.7266 57.4722C59.7267 61.1067 56.7697 64.0637 53.1351 64.0637Z" fill="#FF0000"/>
<path d="M53.1352 52.286C52.3243 52.286 51.667 52.9434 51.667 53.7542V57.4722C51.667 58.283 52.3243 58.9403 53.1352 58.9403C53.946 58.9403 54.6033 58.283 54.6033 57.4722V53.7542C54.6033 52.9434 53.946 52.286 53.1352 52.286ZM54.5958 61.2132C54.5909 61.1662 54.5842 61.1183 54.5742 61.0713C54.5654 61.024 54.5536 60.9772 54.539 60.9314C54.5253 60.8863 54.5086 60.8403 54.4911 60.7963C54.4726 60.7523 54.452 60.7082 54.4295 60.6661C54.407 60.624 54.3825 60.5829 54.3561 60.5428C54.3293 60.5028 54.3005 60.4643 54.2698 60.4273C54.209 60.3524 54.1409 60.2839 54.0664 60.2228C54.029 60.1924 53.9901 60.164 53.9499 60.1376C53.9101 60.1107 53.8689 60.0859 53.8266 60.0632C53.7843 60.0406 53.7409 60.0203 53.6964 60.0025C53.6523 59.9838 53.6072 59.9674 53.5613 59.9536C53.5152 59.9399 53.4693 59.9281 53.4224 59.9184C53.3754 59.9096 53.3273 59.9018 53.2795 59.8968C53.1836 59.887 53.0866 59.887 52.9907 59.8968C52.9437 59.9017 52.8958 59.9095 52.8488 59.9184C52.8019 59.9281 52.7549 59.9398 52.7089 59.9536C52.6628 59.9673 52.6178 59.984 52.5738 60.0025C52.5298 60.0201 52.4857 60.0407 52.4436 60.0632C52.4015 60.0857 52.3604 60.1111 52.3202 60.1376C52.2802 60.1641 52.2409 60.1924 52.2047 60.2228C52.1665 60.2531 52.1312 60.2863 52.097 60.3196C52.0626 60.3539 52.0304 60.3901 52.0001 60.4273C51.9696 60.4645 51.9414 60.5026 51.914 60.5428C51.8874 60.5829 51.863 60.624 51.8405 60.6661C51.818 60.7082 51.7975 60.7523 51.7799 60.7963C51.7613 60.8403 51.7446 60.8863 51.731 60.9314C51.7173 60.9773 51.7055 61.0243 51.6957 61.0713C51.6766 61.1657 51.6671 61.2617 51.6674 61.358C51.6669 61.4543 51.6764 61.5504 51.6957 61.6447C51.7056 61.6917 51.7173 61.7387 51.731 61.7837C51.7446 61.8297 51.7613 61.8747 51.7799 61.9188C51.7975 61.9638 51.8181 62.0068 51.8405 62.0489C51.863 62.091 51.8874 62.1331 51.914 62.1723C51.9414 62.2124 51.9696 62.2516 52.0001 62.2888C52.0305 62.326 52.0627 62.3622 52.097 62.3954C52.1312 62.4297 52.1665 62.462 52.2047 62.4923C52.2409 62.5227 52.2802 62.552 52.3202 62.5784C52.3604 62.6049 52.4015 62.6293 52.4436 62.6519C52.4857 62.6744 52.5298 62.6949 52.5738 62.7135C52.6178 62.7311 52.6628 62.7478 52.7089 62.7614C52.7549 62.7761 52.8018 62.7879 52.8488 62.7967C52.8958 62.8065 52.9437 62.8133 52.9907 62.8183C53.0387 62.8231 53.0876 62.8261 53.1354 62.8261C53.1834 62.8261 53.2313 62.8231 53.2794 62.8183C53.3272 62.8134 53.3752 62.8066 53.4223 62.7967C53.4691 62.7879 53.5151 62.7762 53.5612 62.7614C53.6072 62.7478 53.6522 62.7311 53.6963 62.7135C53.7403 62.6949 53.7843 62.6743 53.8265 62.6519C53.9116 62.6069 53.9919 62.5534 54.0663 62.4923C54.1037 62.4621 54.1393 62.4297 54.1729 62.3954C54.2072 62.3621 54.2395 62.3259 54.2697 62.2888C54.3309 62.2144 54.3844 62.134 54.4294 62.0489C54.4519 62.0068 54.4724 61.9638 54.491 61.9188C54.5086 61.8747 54.5253 61.8297 54.5389 61.7837C54.5535 61.7387 54.5654 61.6917 54.5741 61.6447C54.584 61.5978 54.5907 61.5498 54.5957 61.5019C54.6007 61.4539 54.6035 61.406 54.6035 61.358C54.6036 61.3101 54.6008 61.2611 54.5958 61.2132Z" fill="#FF0000"/>
</svg>
