<svg width="67" height="67" viewBox="0 0 67 67" fill="none" xmlns="http://www.w3.org/2000/svg">
<circle opacity="0.1" cx="25" cy="25" r="25" fill="black"/>
<path d="M35.9013 34.2906H50.1862C50.6047 34.2906 50.9442 33.9514 50.9442 33.5326C50.9442 33.1139 50.6046 32.7746 50.1862 32.7746H35.9013C35.4826 32.7746 35.1433 33.1139 35.1433 33.5326C35.1433 33.9514 35.4826 34.2906 35.9013 34.2906Z" fill="#FF0000"/>
<path d="M30.6946 31.7971L28.8318 33.6599L28.3268 33.155C28.0307 32.8589 27.5505 32.8589 27.2548 33.155C26.9587 33.4511 26.9587 33.9311 27.2548 34.227L28.2959 35.2678C28.592 35.5639 29.0717 35.5639 29.3679 35.2678L31.7666 32.8691C32.0627 32.5732 32.0627 32.093 31.7666 31.7971C31.4704 31.501 30.9907 31.501 30.6946 31.7971Z" fill="#FF0000"/>
<path d="M35.9013 41.6903H50.1862C50.6047 41.6903 50.9442 41.3511 50.9442 40.9323C50.9442 40.5136 50.6046 40.1743 50.1862 40.1743H35.9013C35.4826 40.1743 35.1433 40.5136 35.1433 40.9323C35.1433 41.3511 35.4826 41.6903 35.9013 41.6903Z" fill="#FF0000"/>
<path d="M30.6946 39.1968L28.8318 41.0596L28.3268 40.5547C28.0307 40.2586 27.551 40.2586 27.2548 40.5547C26.9587 40.8506 26.9587 41.3308 27.2548 41.6267L28.2959 42.6678C28.5924 42.9643 29.0723 42.9634 29.3679 42.6678L31.7666 40.2687C32.0627 39.9727 32.0627 39.4927 31.7666 39.1968C31.4704 38.9007 30.9902 38.9007 30.6946 39.1968Z" fill="#FF0000"/>
<path d="M50.9443 48.332C50.9443 47.9132 50.6047 47.5739 50.1863 47.5739H35.9013C35.4826 47.5739 35.1433 47.9132 35.1433 48.332C35.1433 48.7507 35.4826 49.09 35.9013 49.09H50.1862C50.6047 49.09 50.9443 48.7507 50.9443 48.332Z" fill="#FF0000"/>
<path d="M30.6946 46.5967L28.8318 48.4595L28.3268 47.9544C28.0307 47.6583 27.551 47.6583 27.2548 47.9544C26.9587 48.2503 26.9587 48.7305 27.2548 49.0264L28.2959 50.0675C28.592 50.3636 29.0717 50.3636 29.3679 50.0675L31.7666 47.6688C32.0627 47.3729 32.0627 46.8927 31.7666 46.5968C31.4704 46.3006 30.9907 46.3006 30.6946 46.5967Z" fill="#FF0000"/>
<path d="M55.5073 53.1202V25.4442C55.5073 23.923 54.2695 22.6852 52.7485 22.6852H47.9755V22.679C47.9755 22.0918 47.4996 21.6157 46.9124 21.6157H42.02C42.1338 21.2879 42.2034 20.9393 42.2034 20.5729C42.2034 18.8001 40.7611 17.3578 38.9883 17.3578C37.2156 17.3578 35.7733 18.8001 35.7733 20.5729C35.7733 20.9393 35.8427 21.2879 35.9567 21.6157H31.0643C30.4771 21.6157 30.0011 22.0918 30.0011 22.679V22.6852H25.2283C23.707 22.6852 22.4695 23.923 22.4695 25.4442V63.8832C22.4695 65.4045 23.707 66.6423 25.2283 66.6423H54.7491C58.4953 66.6423 61.5305 63.607 61.5305 59.8608C61.5306 56.3711 58.8959 53.4979 55.5073 53.1202ZM38.9882 18.8739C39.9249 18.8739 40.6872 19.6361 40.6872 20.5729C40.6872 20.9678 40.5461 21.3269 40.3193 21.6157H37.6572C37.4303 21.3269 37.2893 20.9677 37.2893 20.5729C37.2893 19.6361 38.0515 18.8739 38.9882 18.8739ZM25.2283 65.1261C24.543 65.1261 23.9856 64.5684 23.9856 63.8831V25.4442C23.9856 24.759 24.543 24.2013 25.2283 24.2013H30.001V25.1093C30.001 26.0993 30.8037 26.902 31.7937 26.902H46.183C47.173 26.902 47.9756 26.0993 47.9756 25.1093V24.2013H52.7486C53.4336 24.2013 53.9913 24.759 53.9913 25.4442V53.1201C50.6025 53.4977 47.9677 56.3711 47.9677 59.8607C47.9677 61.9872 48.9472 63.8828 50.4782 65.1261H25.2283ZM57.6162 58.7437L54.3145 62.0456C54.1665 62.1937 53.9725 62.2677 53.7786 62.2677C53.5846 62.2677 53.3907 62.1937 53.2426 62.0456L51.882 60.6852C51.5859 60.3893 51.5859 59.9094 51.882 59.6132C52.1781 59.3171 52.6578 59.3171 52.954 59.6132L53.7787 60.4376L56.5444 57.6717C56.8405 57.3756 57.3202 57.3756 57.6164 57.6717C57.9123 57.9676 57.9123 58.4476 57.6162 58.7437Z" fill="#FF0000"/>
</svg>
