<svg width="67" height="67" viewBox="0 0 67 67" fill="none" xmlns="http://www.w3.org/2000/svg">
<circle opacity="0.1" cx="25" cy="25" r="25" fill="black"/>
<path d="M32.3075 35.125L34.285 22H24L19.7025 33.25C19.57 33.65 19.5 34.065 19.5 34.5C19.5 37.26 22.375 39.5 25.9275 39.5C29.2025 39.5 31.91 37.59 32.3075 35.125ZM42 39.5C45.55 39.5 48.4275 37.26 48.4275 34.5C48.4275 34.3975 48.42 34.295 48.415 34.1975L47.1425 22H36.8575L35.5825 34.1875C35.5766 34.2916 35.5733 34.3958 35.5725 34.5C35.5725 37.26 38.45 39.5 42 39.5ZM54.5 42.115V52H29.5V42.13C28.405 42.525 27.2 42.75 25.9275 42.75C25.44 42.75 24.9675 42.6925 24.5 42.6275V58.5C24.5 60.425 26.0725 62 27.995 62H56C57.925 62 59.5 60.4225 59.5 58.5V42.63C59.0274 42.7026 58.5505 42.7435 58.0725 42.7525C56.8535 42.7513 55.6442 42.5355 54.5 42.115ZM64.3 33.25L59.9975 22H49.715L51.69 35.105C52.075 37.58 54.7825 39.5 58.0725 39.5C61.6225 39.5 64.5 37.26 64.5 34.5C64.5 34.065 64.43 33.65 64.3 33.25Z" fill="#FF0000"/>
</svg>
