<svg width="67" height="67" viewBox="0 0 67 67" fill="none" xmlns="http://www.w3.org/2000/svg">
<circle opacity="0.1" cx="25" cy="25" r="25" fill="black"/>
<path d="M35.75 60.75H48.25M35.75 60.75V50.3333M35.75 60.75H24.5C24.1685 60.75 23.8505 60.6183 23.6161 60.3839C23.3817 60.1495 23.25 59.8315 23.25 59.5V51.5833C23.25 51.2518 23.3817 50.9339 23.6161 50.6994C23.8505 50.465 24.1685 50.3333 24.5 50.3333H35.75M48.25 60.75V35.75M48.25 60.75H59.5C59.8315 60.75 60.1495 60.6183 60.3839 60.3839C60.6183 60.1495 60.75 59.8315 60.75 59.5V24.5C60.75 24.1685 60.6183 23.8505 60.3839 23.6161C60.1495 23.3817 59.8315 23.25 59.5 23.25H49.5C49.1685 23.25 48.8505 23.3817 48.6161 23.6161C48.3817 23.8505 48.25 24.1685 48.25 24.5V35.75M35.75 50.3333V37C35.75 36.6685 35.8817 36.3505 36.1161 36.1161C36.3505 35.8817 36.6685 35.75 37 35.75H48.25" stroke="#FF0000" stroke-width="3.125"/>
</svg>
