<svg width="67" height="67" viewBox="0 0 67 67" fill="none" xmlns="http://www.w3.org/2000/svg">
<circle opacity="0.1" cx="25" cy="25" r="25" fill="black"/>
<g clip-path="url(#clip0_142_1445)">
<path fill-rule="evenodd" clip-rule="evenodd" d="M47.1471 22.1471H59.647C60.4592 22.1471 61.1176 22.8055 61.1176 23.6177V65.5295C61.1176 66.3416 60.4592 67.0001 59.647 67.0001H24.3529C23.5408 67.0001 22.8823 66.3417 22.8823 65.5295V23.6177C22.8823 22.8056 23.5407 22.1471 24.3529 22.1471H36.8529V18.4706C36.853 17.6584 37.5114 17 38.3235 17H45.6764C46.4886 17 47.1471 17.6584 47.1471 18.4706V22.1471ZM50.8235 64.0588H58.1764V25.0882H47.1471C47.1471 27.9316 44.8394 30.2353 42 30.2353C39.1571 30.2353 36.8529 27.9342 36.8529 25.0918L25.8235 25.0882V64.0588H33.1764V57.447C33.1764 52.5706 37.126 48.6176 41.9999 48.6176C46.8736 48.6176 50.8234 52.5702 50.8234 57.447L50.8235 64.0588ZM47.8824 64.0588V57.447C47.8824 54.1941 45.2489 51.5588 42 51.5588C38.751 51.5588 36.1176 54.1944 36.1176 57.447V64.0588H47.8824ZM39.7941 25.0919C39.7941 26.309 40.7807 27.2941 42.0001 27.2941C43.2163 27.2941 44.206 26.3062 44.206 25.0919V19.9411H39.7942V25.0919H39.7941ZM42 46.4117C38.7513 46.4117 36.1176 43.7781 36.1176 40.5293C36.1176 37.2806 38.7512 34.647 42 34.647C45.2488 34.647 47.8824 37.2806 47.8824 40.5293C47.8824 43.7781 45.2488 46.4117 42 46.4117ZM42 43.4706C43.6243 43.4706 44.9411 42.1538 44.9411 40.5294C44.9411 38.9051 43.6243 37.5883 42 37.5883C40.3756 37.5883 39.0588 38.9051 39.0588 40.5294C39.0588 42.1538 40.3756 43.4706 42 43.4706Z" fill="#FF0000"/>
</g>
<defs>
<clipPath id="clip0_142_1445">
<rect width="50" height="50" fill="white" transform="translate(17 17)"/>
</clipPath>
</defs>
</svg>
