<svg width="67" height="67" viewBox="0 0 67 67" fill="none" xmlns="http://www.w3.org/2000/svg">
<circle opacity="0.1" cx="25" cy="25" r="25" fill="black"/>
<path d="M19.3728 23.9108V60.0902C19.3728 62.5974 21.413 64.6372 23.9203 64.6372H39.8636C40.3846 64.6372 40.807 64.2148 40.807 63.6938C40.807 63.1728 40.3846 62.7504 39.8636 62.7504H23.9203C22.4531 62.7504 21.2596 61.5568 21.2596 60.0902V23.9108C21.2596 22.4437 22.4531 21.2502 23.9203 21.2502H55.121C54.5631 22.0086 54.2296 23.0751 54.2296 23.9675C54.2297 24.0659 54.2316 33.0698 54.2315 32.505C54.2315 33.026 54.6539 33.4484 55.1749 33.4484C55.6959 33.4484 56.1183 33.026 56.1183 32.505V29.4731H62.5078C63.0288 29.4731 63.4512 29.0507 63.4512 28.5297V23.9675C63.4512 21.4085 61.3606 19.325 58.7719 19.3634H23.9203C21.413 19.3634 19.3728 21.4035 19.3728 23.9108ZM56.1183 23.9675C56.1183 20.3828 61.5644 20.3163 61.5644 23.9675V27.5863H56.1183V23.9675Z" fill="#FF0000"/>
<path d="M45.1498 26.6272C45.6708 26.6272 46.0932 26.2048 46.0932 25.6838C46.0932 25.1628 45.6708 24.7404 45.1498 24.7404H30.3328C29.8118 24.7404 29.3894 25.1628 29.3894 25.6838C29.3894 26.2048 29.8118 26.6272 30.3328 26.6272H45.1498Z" fill="#FF0000"/>
<path d="M50.7323 31.1742C50.7323 30.6533 50.3099 30.2308 49.7889 30.2308H25.6936C25.1727 30.2308 24.7502 30.6533 24.7502 31.1742C24.7502 31.6952 25.1727 32.1176 25.6936 32.1176H49.7889C50.3099 32.1176 50.7323 31.6952 50.7323 31.1742Z" fill="#FF0000"/>
<path d="M39.4388 57.3728H25.6936C25.1727 57.3728 24.7502 57.7952 24.7502 58.3162C24.7502 58.8372 25.1727 59.2596 25.6936 59.2596H39.4388C39.9597 59.2596 40.3822 58.8372 40.3822 58.3162C40.3822 57.7952 39.9597 57.3728 39.4388 57.3728Z" fill="#FF0000"/>
<path d="M39.4388 51.8723H25.6936C25.1727 51.8723 24.7502 52.2947 24.7502 52.8157C24.7502 53.3367 25.1727 53.7591 25.6936 53.7591H39.4388C39.9597 53.7591 40.3822 53.3367 40.3822 52.8157C40.3822 52.2947 39.9597 51.8723 39.4388 51.8723Z" fill="#FF0000"/>
<path d="M64.6274 39.1047C64.6274 37.0239 62.9345 35.3311 60.8538 35.3311H46.0446C43.9639 35.3311 42.271 37.0239 42.271 39.1047V60.8636C42.271 62.9443 43.9639 64.6372 46.0446 64.6372H60.8538C62.9345 64.6372 64.6274 62.9443 64.6274 60.8636V39.1047ZM62.7406 60.8636C62.7406 61.9042 61.8944 62.7504 60.8538 62.7504H46.0446C45.004 62.7504 44.1578 61.9042 44.1578 60.8636V39.1047C44.1578 38.0641 45.004 37.2179 46.0446 37.2179H60.8538C61.8944 37.2179 62.7406 38.0641 62.7406 39.1047V60.8636Z" fill="#FF0000"/>
<path d="M48.618 58.9763H46.9878C46.4668 58.9763 46.0444 59.3987 46.0444 59.9197C46.0444 60.4407 46.4668 60.8631 46.9878 60.8631H48.618C49.139 60.8631 49.5614 60.4407 49.5614 59.9197C49.5614 59.3987 49.139 58.9763 48.618 58.9763Z" fill="#FF0000"/>
<path d="M54.2643 58.9763H52.6341C52.1131 58.9763 51.6907 59.3987 51.6907 59.9197C51.6907 60.4407 52.1131 60.8631 52.6341 60.8631H54.2643C54.7853 60.8631 55.2077 60.4407 55.2077 59.9197C55.2077 59.3987 54.7853 58.9763 54.2643 58.9763Z" fill="#FF0000"/>
<path d="M59.9103 58.9763H58.2801C57.7591 58.9763 57.3367 59.3987 57.3367 59.9197C57.3367 60.4407 57.7591 60.8631 58.2801 60.8631H59.9103C60.4313 60.8631 60.8537 60.4407 60.8537 59.9197C60.8537 59.3987 60.4313 58.9763 59.9103 58.9763Z" fill="#FF0000"/>
<path d="M48.618 55.2525H46.9878C46.4668 55.2525 46.0444 55.6749 46.0444 56.1959C46.0444 56.7169 46.4668 57.1393 46.9878 57.1393H48.618C49.139 57.1393 49.5614 56.7169 49.5614 56.1959C49.5614 55.6749 49.139 55.2525 48.618 55.2525Z" fill="#FF0000"/>
<path d="M54.2643 55.2525H52.6341C52.1131 55.2525 51.6907 55.6749 51.6907 56.1959C51.6907 56.7169 52.1131 57.1393 52.6341 57.1393H54.2643C54.7853 57.1393 55.2077 56.7169 55.2077 56.1959C55.2077 55.6749 54.7853 55.2525 54.2643 55.2525Z" fill="#FF0000"/>
<path d="M59.9103 55.2525H58.2801C57.7591 55.2525 57.3367 55.6749 57.3367 56.1959C57.3367 56.7169 57.7591 57.1393 58.2801 57.1393H59.9103C60.4313 57.1393 60.8537 56.7169 60.8537 56.1959C60.8537 55.6749 60.4313 55.2525 59.9103 55.2525Z" fill="#FF0000"/>
<path d="M48.618 51.5282H46.9878C46.4668 51.5282 46.0444 51.9506 46.0444 52.4716C46.0444 52.9926 46.4668 53.415 46.9878 53.415H48.618C49.139 53.415 49.5614 52.9926 49.5614 52.4716C49.5614 51.9506 49.139 51.5282 48.618 51.5282Z" fill="#FF0000"/>
<path d="M54.2643 51.5282H52.6341C52.1131 51.5282 51.6907 51.9506 51.6907 52.4716C51.6907 52.9926 52.1131 53.415 52.6341 53.415H54.2643C54.7853 53.415 55.2077 52.9926 55.2077 52.4716C55.2077 51.9506 54.7853 51.5282 54.2643 51.5282Z" fill="#FF0000"/>
<path d="M59.9103 51.5282H58.2801C57.7591 51.5282 57.3367 51.9506 57.3367 52.4716C57.3367 52.9926 57.7591 53.415 58.2801 53.415H59.9103C60.4313 53.415 60.8537 52.9926 60.8537 52.4716C60.8537 51.9506 60.4313 51.5282 59.9103 51.5282Z" fill="#FF0000"/>
<path d="M59.9102 39.1042H46.9878C46.4668 39.1042 46.0444 39.5266 46.0444 40.0476V48.7478C46.0444 49.2687 46.4668 49.6912 46.9878 49.6912H59.9102C60.4312 49.6912 60.8536 49.2687 60.8536 48.7478V40.0476C60.8536 39.5266 60.4312 39.1042 59.9102 39.1042ZM58.9668 47.8044H47.9312V40.991H58.9668V47.8044Z" fill="#FF0000"/>
<path d="M40.3048 35.4356C39.974 35.033 39.3803 34.9745 38.9767 35.3048L33.6434 39.6837L31.9612 37.334C31.6663 36.9221 31.0979 36.8167 30.6755 37.0949L25.175 40.7155C24.7397 41.002 24.619 41.5871 24.9055 42.0224C25.1931 42.459 25.7784 42.577 26.2123 42.2918L30.9551 39.1696L32.6959 41.6013C32.8479 41.8137 33.081 41.9533 33.3394 41.9874C33.5992 42.0215 33.8599 41.9468 34.0612 41.7815L40.174 36.7632C40.577 36.4325 40.6355 35.8382 40.3048 35.4356Z" fill="#FF0000"/>
<path d="M25.6936 50.2776C26.2146 50.2776 26.637 49.8551 26.637 49.3342V46.0231C26.637 45.5021 26.2146 45.0797 25.6936 45.0797C25.1727 45.0797 24.7502 45.5021 24.7502 46.0231V49.3342C24.7502 49.8551 25.1727 50.2776 25.6936 50.2776Z" fill="#FF0000"/>
<path d="M31.2596 49.3342V43.1362C31.2596 42.6152 30.8372 42.1928 30.3162 42.1928C29.7952 42.1928 29.3728 42.6152 29.3728 43.1362V49.3342C29.3728 49.8551 29.7952 50.2775 30.3162 50.2775C30.8372 50.2775 31.2596 49.8551 31.2596 49.3342Z" fill="#FF0000"/>
<path d="M35.8822 49.3342V44.7213C35.8822 44.2003 35.4597 43.7779 34.9388 43.7779C34.4178 43.7779 33.9954 44.2003 33.9954 44.7213V49.3342C33.9954 49.8551 34.4178 50.2776 34.9388 50.2776C35.4597 50.2776 35.8822 49.8551 35.8822 49.3342Z" fill="#FF0000"/>
<path d="M40.5047 40.9288C40.5047 40.4078 40.0823 39.9854 39.5613 39.9854C39.0403 39.9854 38.6179 40.4078 38.6179 40.9288V49.3342C38.6179 49.8551 39.0403 50.2776 39.5613 50.2776C40.0823 50.2776 40.5047 49.8551 40.5047 49.3342V40.9288Z" fill="#FF0000"/>
</svg>
