<svg width="67" height="67" viewBox="0 0 67 67" fill="none" xmlns="http://www.w3.org/2000/svg">
<circle opacity="0.1" cx="25" cy="25" r="25" fill="black"/>
<path d="M51.375 37.3125C51.3727 35.6355 50.9207 33.9899 50.066 32.5471C49.2113 31.1043 47.9852 29.9171 46.5156 29.1094C47.3622 28.2247 47.9302 27.1109 48.1492 25.9062C48.3682 24.7016 48.2286 23.4591 47.7476 22.3331C47.2666 21.2071 46.4655 20.2472 45.4437 19.5726C44.4219 18.8979 43.2244 18.5383 42 18.5383C40.7756 18.5383 39.5781 18.8979 38.5563 19.5726C37.5345 20.2472 36.7334 21.2071 36.2524 22.3331C35.7714 23.4591 35.6318 24.7016 35.8508 25.9062C36.0698 27.1109 36.6378 28.2247 37.4844 29.1094C36.0148 29.9171 34.7887 31.1043 33.934 32.5471C33.0793 33.9899 32.6273 35.6355 32.625 37.3125V38.875H26.375V42H27.9375V48.1406C27.9372 48.9139 28.1282 49.6753 28.4936 50.3568C28.8589 51.0384 29.3871 51.619 30.0313 52.0469L37.3125 56.9062V63.875C37.3125 64.2894 37.4771 64.6868 37.7701 64.9798C38.0632 65.2729 38.4606 65.4375 38.875 65.4375C38.9995 65.4525 39.1255 65.4525 39.25 65.4375L45.5 63.875C45.8467 63.7894 46.1536 63.5877 46.3697 63.3034C46.5857 63.0191 46.6979 62.6694 46.6875 62.3125V56.9062L53.9688 52.0469C54.6129 51.619 55.1411 51.0384 55.5064 50.3568C55.8718 49.6753 56.0628 48.9139 56.0625 48.1406V42H57.625V38.875H51.375V37.3125ZM38.875 24.8125C38.875 24.1944 39.0583 23.5902 39.4017 23.0763C39.745 22.5624 40.2331 22.1619 40.8041 21.9254C41.3751 21.6888 42.0035 21.627 42.6097 21.7475C43.2158 21.8681 43.7727 22.1657 44.2097 22.6028C44.6467 23.0398 44.9444 23.5966 45.065 24.2028C45.1855 24.809 45.1236 25.4374 44.8871 26.0084C44.6506 26.5794 44.2501 27.0675 43.7362 27.4108C43.2223 27.7542 42.6181 27.9375 42 27.9375C41.1712 27.9375 40.3763 27.6083 39.7903 27.0222C39.2042 26.4362 38.875 25.6413 38.875 24.8125ZM35.75 37.3125C35.75 35.6549 36.4085 34.0652 37.5806 32.8931C38.7527 31.721 40.3424 31.0625 42 31.0625C43.6576 31.0625 45.2473 31.721 46.4194 32.8931C47.5915 34.0652 48.25 35.6549 48.25 37.3125V38.875H35.75V37.3125ZM52.9375 48.1406C52.9362 48.398 52.8713 48.651 52.7486 48.8773C52.626 49.1035 52.4493 49.2959 52.2344 49.4375L44.2656 54.7656C44.0507 54.9072 43.874 55.0996 43.7514 55.3259C43.6287 55.5521 43.5638 55.8051 43.5625 56.0625V61.0937L40.4375 61.875V56.0625C40.4362 55.8051 40.3713 55.5521 40.2486 55.3259C40.126 55.0996 39.9493 54.9072 39.7344 54.7656L31.7656 49.4375C31.5507 49.2959 31.374 49.1035 31.2514 48.8773C31.1287 48.651 31.0638 48.398 31.0625 48.1406V42H52.9375V48.1406Z" fill="#FF0000"/>
<path d="M50.0781 28.2485L55.3317 22.6175L57.616 24.7487L52.3625 30.3797L50.0781 28.2485Z" fill="#FF0000"/>
<path d="M26.373 24.7426L28.6574 22.6114L33.911 28.2424L31.6266 30.3736L26.373 24.7426Z" fill="#FF0000"/>
<path d="M36.5312 45.125H47.4688V48.25H36.5312V45.125Z" fill="#FF0000"/>
</svg>
