<svg width="50" height="50" viewBox="0 0 50 50" fill="none" xmlns="http://www.w3.org/2000/svg">
<path d="M38.2812 5.46875H16.4062C15.1118 5.46875 14.0625 6.51808 14.0625 7.8125V39.8438C14.0625 41.1382 15.1118 42.1875 16.4062 42.1875H38.2812C39.5757 42.1875 40.625 41.1382 40.625 39.8438V7.8125C40.625 6.51808 39.5757 5.46875 38.2812 5.46875Z" fill="#0093B9"/>
<path d="M17.1875 8.59375H37.5V39.0625H17.1875V8.59375Z" fill="#E3E4E2"/>
<path d="M32.8125 8.59375H21.875V5.46875H25L24.2188 2.34375H30.4688L29.6875 5.46875H32.8125V8.59375Z" fill="#57C3C1"/>
<path d="M31.25 47.6562H3.125V22.6562H17.1875V35.1562H31.25V47.6562Z" fill="#F8BC1E"/>
<path d="M21.875 35.1562H26.5625V39.8438H21.875V35.1562Z" fill="#F9DA62"/>
<path d="M31.25 35.9375H30.0781C29.7673 35.9375 29.4693 36.061 29.2495 36.2807C29.0297 36.5005 28.9062 36.7986 28.9062 37.1094V39.0923C28.9061 40.7419 28.2507 42.324 27.0842 43.4905C25.9178 44.657 24.3357 45.3124 22.686 45.3125H19.1406C18.8298 45.3125 18.5318 45.436 18.312 45.6557C18.0922 45.8755 17.9688 46.1736 17.9688 46.4844V47.6562H31.25V35.9375Z" fill="#F5A922"/>
<path d="M7.8125 35.1562H12.5V39.8438H7.8125V35.1562Z" fill="#F9DA62"/>
<path d="M17.1875 35.9375H16.0156C15.7048 35.9375 15.4068 36.061 15.187 36.2807C14.9672 36.5005 14.8438 36.7986 14.8438 37.1094V39.0923C14.8436 40.7419 14.1882 42.324 13.0217 43.4905C11.8553 44.657 10.2732 45.3124 8.62354 45.3125H5.07812C4.76732 45.3125 4.46925 45.436 4.24948 45.6557C4.02971 45.8755 3.90625 46.1736 3.90625 46.4844V47.6562H17.1875V35.9375Z" fill="#F5A922"/>
<path d="M7.8125 22.6562H12.5V27.3438H7.8125V22.6562Z" fill="#F9DA62"/>
<path d="M17.1875 23.4375H16.0156C15.7048 23.4375 15.4068 23.561 15.187 23.7807C14.9672 24.0005 14.8438 24.2986 14.8438 24.6094V26.5923C14.8436 28.2419 14.1882 29.824 13.0217 30.9905C11.8553 32.157 10.2732 32.8124 8.62354 32.8125H5.07812C4.76732 32.8125 4.46925 32.936 4.24948 33.1557C4.02971 33.3755 3.90625 33.6736 3.90625 33.9844V35.1562H17.1875V23.4375Z" fill="#F5A922"/>
<path d="M45.4926 25.5808L24.5355 31.8511L21.0938 31.2499L23.6397 28.8574L44.5968 22.5871C44.9938 22.4683 45.4217 22.5121 45.7864 22.7088C46.1512 22.9055 46.4228 23.2391 46.5416 23.6361C46.6604 24.0331 46.6166 24.461 46.4198 24.8257C46.2231 25.1904 45.8896 25.462 45.4926 25.5808Z" fill="#F8BC1E"/>
<path d="M47.2901 23.4122C47.1119 22.8167 46.7045 22.3163 46.1574 22.0212C45.6104 21.7261 44.9685 21.6604 44.373 21.8385L23.4159 28.1088C23.2998 28.1436 23.1933 28.2049 23.1049 28.288L20.5588 30.6805C20.4531 30.7799 20.3771 30.9067 20.3394 31.0468C20.3016 31.1869 20.3037 31.3347 20.3452 31.4738C20.3868 31.6128 20.4663 31.7374 20.5747 31.8338C20.6831 31.9302 20.8163 31.9945 20.9592 32.0195L24.4009 32.6207C24.5204 32.6415 24.6431 32.6343 24.7593 32.5996L41.764 27.5117L41.8376 29.1206L36.4343 30.7372L36.8822 32.2343L42.8699 30.4426C43.0368 30.3927 43.1822 30.2885 43.2831 30.1464C43.384 30.0043 43.4344 29.8326 43.4265 29.6586L43.3071 27.0508L45.7165 26.3299C46.312 26.1517 46.8124 25.7442 47.1075 25.1971C47.4026 24.6501 47.4682 24.0082 47.2901 23.4127V23.4122ZM24.4883 31.0499L22.7674 30.7493L24.0405 29.5529L27.6061 28.4863L28.0539 29.9832L24.4883 31.0499ZM29.5508 29.5351L29.103 28.0383L41.6168 24.294L41.6905 25.903L29.5508 29.5351ZM45.7325 24.4548C45.684 24.5452 45.618 24.6252 45.5384 24.69C45.4588 24.7548 45.3672 24.8032 45.2688 24.8324L43.2335 25.4413L43.1599 23.8324L44.8209 23.3354C44.969 23.2911 45.1268 23.2917 45.2745 23.3372C45.4222 23.3826 45.5531 23.4708 45.6506 23.5906C45.7482 23.7104 45.808 23.8564 45.8226 24.0103C45.8372 24.1641 45.8058 24.3188 45.7325 24.4548Z" fill="black"/>
<path d="M31.25 34.375H17.9688V22.6562C17.9688 22.449 17.8864 22.2503 17.7399 22.1038C17.5934 21.9573 17.3947 21.875 17.1875 21.875H3.125C2.9178 21.875 2.71909 21.9573 2.57257 22.1038C2.42606 22.2503 2.34375 22.449 2.34375 22.6562V47.6562C2.34375 47.8635 2.42606 48.0622 2.57257 48.2087C2.71909 48.3552 2.9178 48.4375 3.125 48.4375H31.25C31.4572 48.4375 31.6559 48.3552 31.8024 48.2087C31.9489 48.0622 32.0312 47.8635 32.0312 47.6562V35.1562C32.0312 34.949 31.9489 34.7503 31.8024 34.6038C31.6559 34.4573 31.4572 34.375 31.25 34.375ZM22.6562 35.9375H25.7812V39.0625H22.6562V35.9375ZM8.59375 23.4375H11.7188V26.5625H8.59375V23.4375ZM3.90625 23.4375H7.03125V27.3438C7.03125 27.551 7.11356 27.7497 7.26007 27.8962C7.40659 28.0427 7.6053 28.125 7.8125 28.125H12.5C12.7072 28.125 12.9059 28.0427 13.0524 27.8962C13.1989 27.7497 13.2812 27.551 13.2812 27.3438V23.4375H16.4062V34.375H3.90625V23.4375ZM8.59375 35.9375H11.7188V39.0625H8.59375V35.9375ZM3.90625 35.9375H7.03125V39.8438C7.03125 40.051 7.11356 40.2497 7.26007 40.3962C7.40659 40.5427 7.6053 40.625 7.8125 40.625H12.5C12.7072 40.625 12.9059 40.5427 13.0524 40.3962C13.1989 40.2497 13.2812 40.051 13.2812 39.8438V35.9375H16.4062V46.875H3.90625V35.9375ZM30.4688 46.875H17.9688V35.9375H21.0938V39.8438C21.0938 40.051 21.1761 40.2497 21.3226 40.3962C21.4691 40.5427 21.6678 40.625 21.875 40.625H26.5625C26.7697 40.625 26.9684 40.5427 27.1149 40.3962C27.2614 40.2497 27.3438 40.051 27.3438 39.8438V35.9375H30.4688V46.875Z" fill="black"/>
<path d="M27.3438 43.75H28.9062V45.3125H27.3438V43.75Z" fill="black"/>
<path d="M13.2812 43.75H14.8438V45.3125H13.2812V43.75Z" fill="black"/>
<path d="M13.2812 31.25H14.8438V32.8125H13.2812V31.25Z" fill="black"/>
<path d="M14.8438 7.8125C14.8442 7.39825 15.009 7.00111 15.3019 6.70819C15.5949 6.41527 15.992 6.25049 16.4062 6.25H21.0938V7.8125H17.1875C16.9803 7.8125 16.7816 7.89481 16.6351 8.04132C16.4886 8.18784 16.4062 8.38655 16.4062 8.59375V20.3125H17.9688V9.375H36.7188V21.875H38.2812V8.59375C38.2812 8.38655 38.1989 8.18784 38.0524 8.04132C37.9059 7.89481 37.7072 7.8125 37.5 7.8125H33.5938V6.25H38.2812C38.6955 6.25049 39.0926 6.41527 39.3856 6.70819C39.6785 7.00111 39.8433 7.39825 39.8438 7.8125V21.0938H41.4062V7.8125C41.4053 6.98398 41.0758 6.18967 40.4899 5.60382C39.9041 5.01797 39.1098 4.68843 38.2812 4.6875H30.6881L31.2267 2.5332C31.2554 2.41803 31.2576 2.2978 31.233 2.18167C31.2083 2.06553 31.1576 1.95653 31.0845 1.86296C31.0115 1.76938 30.918 1.69369 30.8113 1.64162C30.7046 1.58956 30.5875 1.5625 30.4688 1.5625H24.2188C24.1 1.5625 23.9829 1.58956 23.8762 1.64162C23.7695 1.69369 23.6761 1.76938 23.603 1.86296C23.5299 1.95653 23.4791 2.06553 23.4545 2.18167C23.4299 2.2978 23.432 2.41803 23.4608 2.5332L23.9994 4.6875H16.4062C15.5777 4.68843 14.7834 5.01797 14.1976 5.60382C13.6117 6.18967 13.2822 6.98398 13.2812 7.8125V20.3125H14.8438V7.8125ZM22.6562 6.25H25C25.1187 6.25 25.2359 6.22294 25.3426 6.17088C25.4493 6.11881 25.5427 6.04312 25.6158 5.94954C25.6888 5.85597 25.7396 5.74697 25.7642 5.63083C25.7889 5.5147 25.7867 5.39447 25.7579 5.2793L25.2193 3.125H29.4682L28.9296 5.2793C28.9008 5.39447 28.8986 5.5147 28.9233 5.63083C28.9479 5.74697 28.9987 5.85597 29.0717 5.94954C29.1448 6.04312 29.2382 6.11881 29.3449 6.17088C29.4516 6.22294 29.5688 6.25 29.6875 6.25H32.0312V7.8125H22.6562V6.25Z" fill="black"/>
<path d="M39.8438 39.8438C39.8433 40.258 39.6785 40.6551 39.3856 40.9481C39.0926 41.241 38.6955 41.4058 38.2812 41.4062H33.5938V42.9688H38.2812C39.1098 42.9678 39.9041 42.6383 40.4899 42.0524C41.0758 41.4666 41.4053 40.6723 41.4062 39.8438V32.8125H39.8438V39.8438Z" fill="black"/>
<path d="M38.2812 39.0625V33.5938H36.7188V38.2812H33.5938V39.8438H37.5C37.7072 39.8438 37.9059 39.7614 38.0524 39.6149C38.1989 39.4684 38.2812 39.2697 38.2812 39.0625Z" fill="black"/>
<path d="M24.2188 11.7188C24.2188 11.5115 24.1364 11.3128 23.9899 11.1663C23.8434 11.0198 23.6447 10.9375 23.4375 10.9375H20.3125C20.1053 10.9375 19.9066 11.0198 19.7601 11.1663C19.6136 11.3128 19.5312 11.5115 19.5312 11.7188V14.8438C19.5312 15.051 19.6136 15.2497 19.7601 15.3962C19.9066 15.5427 20.1053 15.625 20.3125 15.625H23.4375C23.6447 15.625 23.8434 15.5427 23.9899 15.3962C24.1364 15.2497 24.2188 15.051 24.2188 14.8438V11.7188ZM22.6562 14.0625H21.0938V12.5H22.6562V14.0625Z" fill="black"/>
<path d="M23.4375 17.9688H20.3125C20.1053 17.9688 19.9066 18.0511 19.7601 18.1976C19.6136 18.3441 19.5312 18.5428 19.5312 18.75V21.875C19.5312 22.0822 19.6136 22.2809 19.7601 22.4274C19.9066 22.5739 20.1053 22.6562 20.3125 22.6562H23.4375C23.6447 22.6562 23.8434 22.5739 23.9899 22.4274C24.1364 22.2809 24.2188 22.0822 24.2188 21.875V18.75C24.2188 18.5428 24.1364 18.3441 23.9899 18.1976C23.8434 18.0511 23.6447 17.9688 23.4375 17.9688ZM22.6562 21.0938H21.0938V19.5312H22.6562V21.0938Z" fill="black"/>
<path d="M25.7812 10.9375H27.3438V12.5H25.7812V10.9375Z" fill="black"/>
<path d="M25.7812 14.0625H35.1562V15.625H25.7812V14.0625Z" fill="black"/>
<path d="M28.9062 10.9375H35.1562V12.5H28.9062V10.9375Z" fill="black"/>
<path d="M25.7812 17.9688H27.3438V19.5312H25.7812V17.9688Z" fill="black"/>
<path d="M25.7812 21.0938H35.1562V22.6562H25.7812V21.0938Z" fill="black"/>
<path d="M28.9062 17.9688H35.1562V19.5312H28.9062V17.9688Z" fill="black"/>
</svg>
