<svg width="15" height="15" viewBox="0 0 15 15" fill="none" xmlns="http://www.w3.org/2000/svg">
<g clip-path="url(#clip0_142_1247)">
<path d="M11.4551 14.0625C10.8833 14.0625 10.0799 13.8556 8.87701 13.1836C7.41421 12.3633 6.28277 11.6059 4.82788 10.1549C3.42515 8.753 2.74253 7.84538 1.78716 6.10691C0.707865 4.14402 0.89185 3.11511 1.09751 2.67536C1.34244 2.14978 1.70396 1.83542 2.17124 1.52341C2.43666 1.34951 2.71753 1.20045 3.01031 1.0781C3.0396 1.0655 3.06685 1.05349 3.09117 1.04265C3.23619 0.977316 3.45591 0.878586 3.73423 0.984054C3.91997 1.05378 4.0858 1.19646 4.34537 1.4528C4.87769 1.9778 5.60513 3.14704 5.87349 3.72126C6.05367 4.10827 6.1729 4.36374 6.1732 4.65027C6.1732 4.98571 6.00445 5.24441 5.79966 5.5236C5.76128 5.57605 5.7232 5.62614 5.68628 5.67478C5.46333 5.96775 5.41441 6.05241 5.44663 6.20359C5.51197 6.50739 5.99917 7.41179 6.79986 8.21071C7.60054 9.00964 8.47886 9.46609 8.78384 9.53112C8.94146 9.56482 9.02789 9.51384 9.33023 9.28298C9.37359 9.24987 9.41812 9.2156 9.4647 9.18132C9.77701 8.949 10.0237 8.78464 10.3512 8.78464H10.353C10.638 8.78464 10.8821 8.90827 11.2864 9.11218C11.8137 9.37819 13.0181 10.0963 13.5463 10.6292C13.8033 10.8882 13.9465 11.0534 14.0166 11.2388C14.122 11.518 14.0227 11.7369 13.958 11.8834C13.9471 11.9077 13.9351 11.9343 13.9225 11.9639C13.7992 12.2562 13.6492 12.5365 13.4746 12.8012C13.1631 13.2671 12.8476 13.6277 12.3209 13.8729C12.0504 14.0009 11.7543 14.0657 11.4551 14.0625Z" fill="white"/>
</g>
<defs>
<clipPath id="clip0_142_1247">
<rect width="15" height="15" fill="white"/>
</clipPath>
</defs>
</svg>
