<svg width="35" height="35" viewBox="0 0 35 35" fill="none" xmlns="http://www.w3.org/2000/svg">
<path d="M29.1667 26.2502C29.1667 26.6369 29.0131 27.0079 28.7396 27.2814C28.4661 27.5549 28.0952 27.7085 27.7084 27.7085H7.29175C6.90497 27.7085 6.53404 27.5549 6.26055 27.2814C5.98706 27.0079 5.83341 26.6369 5.83341 26.2502C5.83341 25.8634 5.98706 25.4925 6.26055 25.219C6.53404 24.9455 6.90497 24.7918 7.29175 24.7918L27.7084 24.7918C28.0952 24.7918 28.4661 24.9455 28.7396 25.219C29.0131 25.4925 29.1667 25.8634 29.1667 26.2502ZM29.1667 8.75016C29.1667 9.13694 29.0131 9.50787 28.7396 9.78136C28.4661 10.0549 28.0952 10.2085 27.7084 10.2085L7.29175 10.2085C6.90497 10.2085 6.53404 10.0549 6.26055 9.78136C5.98706 9.50787 5.83341 9.13694 5.83341 8.75016C5.83341 8.36339 5.98706 7.99246 6.26055 7.71897C6.53404 7.44547 6.90497 7.29183 7.29175 7.29183L27.7084 7.29183C28.0952 7.29183 28.4661 7.44547 28.7396 7.71897C29.0131 7.99246 29.1667 8.36339 29.1667 8.75016ZM27.7084 18.9585C28.0952 18.9585 28.4661 18.8049 28.7396 18.5314C29.0131 18.2579 29.1667 17.8869 29.1667 17.5002C29.1667 17.1134 29.0131 16.7425 28.7396 16.469C28.4661 16.1955 28.0952 16.0418 27.7084 16.0418H16.0417C15.655 16.0418 15.284 16.1955 15.0106 16.469C14.7371 16.7425 14.5834 17.1134 14.5834 17.5002C14.5834 17.8869 14.7371 18.2579 15.0106 18.5314C15.284 18.8049 15.655 18.9585 16.0417 18.9585H27.7084Z" fill="#1D1D1B"/>
</svg>
