<svg width="50" height="50" viewBox="0 0 50 50" fill="none" xmlns="http://www.w3.org/2000/svg">
<g clip-path="url(#clip0_28_1727)">
<path d="M1.5625 1.5625H32.8125V42.1875H1.5625V1.5625Z" fill="#C7E2FB"/>
<path d="M1.5625 34.3648C1.69297 34.3672 1.82188 34.375 1.95312 34.375C16.8391 34.375 28.9062 22.1328 28.9062 7.03125C28.9062 5.15859 28.7195 3.32969 28.3664 1.5625H1.5625V34.3648Z" fill="#EBF7FE"/>
<path d="M28.125 21.875H43.75V34.375H28.125V21.875Z" fill="#C18E5C"/>
<path d="M28.125 21.875V31.9398C28.6383 31.9961 29.1586 32.0312 29.6875 32.0312C36.0969 32.0312 41.4945 27.7391 43.1883 21.875H28.125Z" fill="#CDA57D"/>
<path d="M31.25 34.375H48.4375V48.4375H31.25V34.375Z" fill="#C18E5C"/>
<path d="M31.25 46.0492C38.1891 45.5742 44.0781 40.918 46.8078 34.375H31.25V46.0492Z" fill="#CDA57D"/>
<path d="M4.6875 4.6875H10.9375V10.9375H4.6875V4.6875Z" fill="#4472B0"/>
<path d="M4.6875 14.0625H10.9375V20.3125H4.6875V14.0625Z" fill="#4472B0"/>
<path d="M4.6875 23.4375H10.9375V29.6875H4.6875V23.4375Z" fill="#4472B0"/>
<path d="M4.6875 32.8125H10.9375V39.0625H4.6875V32.8125Z" fill="#4472B0"/>
<path d="M37.5 34.375H42.1875V39.0625H37.5V34.375Z" fill="white"/>
<path d="M14.0625 34.375H31.25V48.4375H14.0625V34.375Z" fill="#C18E5C"/>
<path d="M14.0625 46.0492C21.0016 45.5742 26.8906 40.918 29.6203 34.375H14.0625V46.0492Z" fill="#CDA57D"/>
<path d="M20.3125 34.375H25V39.0625H20.3125V34.375Z" fill="white"/>
<path d="M34.375 21.875H37.5V26.5625H34.375V21.875Z" fill="white"/>
<path d="M4.6875 21.0938H10.9375C11.3688 21.0938 11.7188 20.7438 11.7188 20.3125V14.0625C11.7188 13.6313 11.3688 13.2812 10.9375 13.2812H4.6875C4.25625 13.2812 3.90625 13.6313 3.90625 14.0625V20.3125C3.90625 20.7438 4.25625 21.0938 4.6875 21.0938ZM5.46875 14.8438H10.1562V19.5312H5.46875V14.8438Z" fill="black"/>
<path d="M10.9375 32.0312H4.6875C4.25625 32.0312 3.90625 32.3805 3.90625 32.8125V39.0625C3.90625 39.4945 4.25625 39.8438 4.6875 39.8438H10.9375C11.3688 39.8438 11.7188 39.4945 11.7188 39.0625V32.8125C11.7188 32.3805 11.3688 32.0312 10.9375 32.0312ZM10.1562 38.2812H5.46875V33.5938H10.1562V38.2812Z" fill="black"/>
<path d="M13.2812 5.46875H30.4688V7.03125H13.2812V5.46875Z" fill="black"/>
<path d="M13.2812 8.59375H30.4688V10.1562H13.2812V8.59375Z" fill="black"/>
<path d="M13.2812 14.8438H30.4688V16.4062H13.2812V14.8438Z" fill="black"/>
<path d="M13.2812 17.9688H30.4688V19.5312H13.2812V17.9688Z" fill="black"/>
<path d="M10.6141 3.90635H4.6875C4.25625 3.90635 3.90625 4.25635 3.90625 4.6876V10.9376C3.90625 11.3688 4.25625 11.7188 4.6875 11.7188H10.9375C11.3688 11.7188 11.7188 11.3688 11.7188 10.9376V5.01104L13.0523 3.67744L11.9477 2.57275L10.6141 3.90635ZM9.05156 5.46885L5.46875 9.05166V5.46885H9.05156ZM10.1562 10.1563H6.57344L10.1562 6.57353V10.1563Z" fill="black"/>
<path d="M11.9477 21.3228L10.6141 22.6563H4.6875C4.25625 22.6563 3.90625 23.0063 3.90625 23.4376V29.6876C3.90625 30.1196 4.25625 30.4688 4.6875 30.4688H10.9375C11.3688 30.4688 11.7188 30.1196 11.7188 29.6876V23.761L13.0523 22.4274L11.9477 21.3228ZM9.05156 24.2188L5.46875 27.8017V24.2188H9.05156ZM10.1562 28.9063H6.57344L10.1562 25.3235V28.9063Z" fill="black"/>
<path d="M48.4375 49.2188C48.8688 49.2188 49.2188 48.8695 49.2188 48.4375V34.375C49.2188 33.943 48.8688 33.5938 48.4375 33.5938H44.5312V21.875C44.5312 21.4438 44.1813 21.0938 43.75 21.0938H33.5938V1.5625C33.5938 1.13125 33.2438 0.78125 32.8125 0.78125H1.5625C1.13125 0.78125 0.78125 1.13125 0.78125 1.5625V42.1875C0.78125 42.6195 1.13125 42.9688 1.5625 42.9688H13.2812V48.4375C13.2812 48.8695 13.6313 49.2188 14.0625 49.2188H48.4375ZM38.2812 35.1562H41.4062V38.2812H38.2812V35.1562ZM28.9062 33.5938V22.6562H33.5938V26.5625C33.5938 26.9945 33.9437 27.3438 34.375 27.3438H37.5C37.9313 27.3438 38.2812 26.9945 38.2812 26.5625V22.6562H42.9688V33.5938H28.9062ZM35.1562 22.6562H36.7188V25.7812H35.1562V22.6562ZM13.2812 34.375V41.4062H2.34375V2.34375H32.0312V21.0938H28.125C27.6938 21.0938 27.3438 21.4438 27.3438 21.875V24.2188H13.2812V25.7812H27.3438V27.3438H13.2812V28.9062H27.3438V33.5938H14.0625C13.6313 33.5938 13.2812 33.943 13.2812 34.375ZM21.0938 35.1562H24.2188V38.2812H21.0938V35.1562ZM14.8438 35.1562H19.5312V39.0625C19.5312 39.4945 19.8813 39.8438 20.3125 39.8438H25C25.4312 39.8438 25.7812 39.4945 25.7812 39.0625V35.1562H30.4688V47.6562H14.8438V35.1562ZM47.6562 47.6562H32.0312V35.1562H36.7188V39.0625C36.7188 39.4945 37.0687 39.8438 37.5 39.8438H42.1875C42.6188 39.8438 42.9688 39.4945 42.9688 39.0625V35.1562H47.6562V47.6562Z" fill="black"/>
<path d="M42.9688 44.5312H46.0938V46.0938H42.9688V44.5312Z" fill="black"/>
<path d="M38.2812 30.4688H41.4062V32.0312H38.2812V30.4688Z" fill="black"/>
<path d="M42.9688 41.4062H46.0938V42.9688H42.9688V41.4062Z" fill="black"/>
<path d="M25.7812 44.5312H28.9062V46.0938H25.7812V44.5312Z" fill="black"/>
<path d="M25.7812 41.4062H28.9062V42.9688H25.7812V41.4062Z" fill="black"/>
</g>
<defs>
<clipPath id="clip0_28_1727">
<rect width="50" height="50" fill="white"/>
</clipPath>
</defs>
</svg>
