<svg width="50" height="50" viewBox="0 0 50 50" fill="none" xmlns="http://www.w3.org/2000/svg">
<path d="M36.7188 24.2188H47.6562V42.9688H36.7188V24.2188Z" fill="#31C292"/>
<path d="M40.625 42.9688H43.75V47.6562H40.625V42.9688Z" fill="#00A16C"/>
<path d="M40.625 19.5312H43.75V24.2188H40.625V19.5312Z" fill="#00A16C"/>
<path d="M36.7188 28.125H47.6562V29.6875H36.7188V28.125Z" fill="#00B378"/>
<path d="M36.7188 32.8125H47.6562V34.375H36.7188V32.8125Z" fill="#00B378"/>
<path d="M36.7188 37.5H47.6562V39.0625H36.7188V37.5Z" fill="#00B378"/>
<path d="M37.2526 33.0794C36.8409 32.9807 36.4584 32.7859 36.1364 32.511C35.8144 32.2362 35.5621 31.889 35.4 31.4979C35.2379 31.1068 35.1707 30.6829 35.2039 30.2608C35.2371 29.8387 35.3697 29.4305 35.5909 29.0696L36.5698 27.4723L34.2466 25.149L32.6492 26.1279C32.2882 26.3491 31.88 26.4817 31.458 26.5149C31.0359 26.548 30.612 26.4808 30.2209 26.3188C29.8298 26.1567 29.4826 25.9044 29.2077 25.5824C28.9328 25.2604 28.7381 24.8779 28.6394 24.4662L28.2054 22.6562H24.9196L24.4857 24.4662C24.387 24.8779 24.1922 25.2603 23.9173 25.5823C23.6424 25.9043 23.2953 26.1567 22.9041 26.3187C22.513 26.4808 22.0891 26.548 21.6671 26.5148C21.245 26.4816 20.8368 26.349 20.4758 26.1278L18.8785 25.149L16.5553 27.4722L17.5341 29.0696C17.7553 29.4305 17.8879 29.8387 17.9211 30.2608C17.9543 30.6829 17.8871 31.1068 17.725 31.4979C17.5629 31.889 17.3106 32.2362 16.9886 32.511C16.6666 32.7859 16.2842 32.9807 15.8725 33.0794L14.0625 33.5134V36.7991L15.8724 37.2331C16.2841 37.3318 16.6666 37.5266 16.9886 37.8014C17.3106 38.0763 17.5629 38.4235 17.725 38.8146C17.8871 39.2057 17.9542 39.6296 17.9211 40.0517C17.8879 40.4737 17.7553 40.8819 17.5341 41.2429L16.5552 42.8402L18.8784 45.1635L20.4758 44.1846C20.8368 43.9634 21.245 43.8308 21.667 43.7976C22.0891 43.7645 22.513 43.8317 22.9041 43.9937C23.2952 44.1558 23.6424 44.4081 23.9173 44.7301C24.1922 45.0521 24.3869 45.4346 24.4856 45.8463L24.9196 47.6562H28.2054L28.6393 45.8463C28.738 45.4346 28.9328 45.0522 29.2077 44.7302C29.4826 44.4082 29.8297 44.1558 30.2209 43.9938C30.612 43.8317 31.0359 43.7645 31.4579 43.7977C31.88 43.8309 32.2882 43.9635 32.6492 44.1847L34.2465 45.1635L36.5697 42.8403L35.5909 41.2429C35.3697 40.882 35.2371 40.4738 35.2039 40.0517C35.1707 39.6297 35.2379 39.2057 35.4 38.8146C35.5621 38.4235 35.8144 38.0763 36.1364 37.8015C36.4584 37.5266 36.8408 37.3318 37.2525 37.2331L39.0625 36.7991V33.5134L37.2526 33.0794ZM26.5625 39.8438C25.6354 39.8438 24.7291 39.5688 23.9583 39.0538C23.1874 38.5387 22.5866 37.8066 22.2318 36.9501C21.877 36.0935 21.7842 35.151 21.9651 34.2418C22.1459 33.3325 22.5924 32.4972 23.2479 31.8417C23.9035 31.1861 24.7387 30.7397 25.648 30.5588C26.5573 30.378 27.4998 30.4708 28.3563 30.8256C29.2129 31.1804 29.9449 31.7812 30.46 32.552C30.9751 33.3229 31.25 34.2291 31.25 35.1562C31.25 35.7718 31.1288 36.3814 30.8932 36.9501C30.6576 37.5188 30.3123 38.0355 29.8771 38.4708C29.4418 38.9061 28.925 39.2514 28.3563 39.4869C27.7876 39.7225 27.1781 39.8438 26.5625 39.8438Z" fill="#4484D1"/>
<path d="M2.34375 27.3438V44.7545C2.34375 46.3571 5.49173 47.6562 9.375 47.6562C13.2583 47.6562 16.4062 46.3571 16.4062 44.7545V27.3438H2.34375Z" fill="#6A7477"/>
<path d="M9.375 43.75C5.49173 43.75 2.34375 42.3509 2.34375 40.625V44.7545C2.34375 46.3571 5.49173 47.6562 9.375 47.6562C13.2583 47.6562 16.4062 46.3571 16.4062 44.7545V40.625C16.4062 42.3509 13.2583 43.75 9.375 43.75Z" fill="#465257"/>
<path d="M9.375 30.4688C13.2583 30.4688 16.4062 29.0696 16.4062 27.3438C16.4062 25.6179 13.2583 24.2188 9.375 24.2188C5.49175 24.2188 2.34375 25.6179 2.34375 27.3438C2.34375 29.0696 5.49175 30.4688 9.375 30.4688Z" fill="#465257"/>
<path d="M4.6875 32.0312H6.25V40.625H4.6875V32.0312Z" fill="#596468"/>
<path d="M8.59375 32.8125H10.1562V41.4062H8.59375V32.8125Z" fill="#596468"/>
<path d="M12.5 32.0312H14.0625V40.625H12.5V32.0312Z" fill="#596468"/>
<path d="M9.375 19.5312C8.9606 19.5312 8.56317 19.6959 8.27015 19.9889C7.97712 20.2819 7.8125 20.6793 7.8125 21.0938V27.3438H10.9375V21.0938C10.9375 20.6793 10.7729 20.2819 10.4799 19.9889C10.1868 19.6959 9.7894 19.5312 9.375 19.5312Z" fill="#596468"/>
<path d="M39.0625 16.4062H27.3438L25 19.5312L22.6562 16.4062H10.9375C10.5231 16.4062 10.1257 16.2416 9.83265 15.9486C9.53962 15.6556 9.375 15.2582 9.375 14.8438V3.90625C9.375 3.49185 9.53962 3.09442 9.83265 2.8014C10.1257 2.50837 10.5231 2.34375 10.9375 2.34375H39.0625C39.4769 2.34375 39.8743 2.50837 40.1674 2.8014C40.4604 3.09442 40.625 3.49185 40.625 3.90625V14.8438C40.625 15.2582 40.4604 15.6556 40.1674 15.9486C39.8743 16.2416 39.4769 16.4062 39.0625 16.4062Z" fill="#00B378"/>
<path d="M17.1875 5.46875H20.3125C21.3485 5.46875 22.3421 5.8803 23.0746 6.61286C23.8072 7.34543 24.2188 8.339 24.2188 9.375C24.2188 10.411 23.8072 11.4046 23.0746 12.1371C22.3421 12.8697 21.3485 13.2812 20.3125 13.2812H17.1875" fill="#59CEA7"/>
<path d="M37.5 4.6875H33.5937V6.25H35.6138L32.8125 9.05142L31.8024 8.04129C31.6559 7.89482 31.4572 7.81255 31.25 7.81255C31.0428 7.81255 30.8441 7.89482 30.6975 8.04129L26.01 12.7288L27.1149 13.8337L31.25 9.69858L32.26 10.7087C32.4066 10.8552 32.6053 10.9375 32.8125 10.9375C33.0197 10.9375 33.2184 10.8552 33.3649 10.7087L36.7187 7.35493V9.375H38.2812V5.46875C38.2812 5.26155 38.1989 5.06284 38.0524 4.91633C37.9059 4.76982 37.7072 4.68751 37.5 4.6875Z" fill="#F4D1BD"/>
<path d="M12.5 47.3539C13.0311 47.2476 13.5534 47.1015 14.0625 46.9167V42.9536C13.5551 43.152 13.0326 43.3095 12.5 43.4244V47.3539Z" fill="#596468"/>
<path d="M8.59375 47.6381C8.85038 47.6498 9.11078 47.6564 9.375 47.6564C9.63922 47.6564 9.89962 47.6498 10.1562 47.6381V43.7305C9.89962 43.7431 9.63922 43.7501 9.375 43.7501C9.11078 43.7501 8.85038 43.7431 8.59375 43.7305V47.6381Z" fill="#596468"/>
<path d="M4.6875 46.9167C5.19662 47.1015 5.71893 47.2476 6.25 47.3539V43.4244C5.71742 43.3095 5.19492 43.152 4.6875 42.9536V46.9167Z" fill="#596468"/>
<path d="M19.5312 10.1562H24.1405C24.1926 9.89911 24.2188 9.63738 24.2188 9.375C24.2188 9.11262 24.1926 8.85089 24.1405 8.59375H19.5312V10.1562Z" fill="#31C292"/>
<path d="M17.1875 13.2812C19.3449 13.2812 21.0938 11.5324 21.0938 9.375C21.0938 7.21764 19.3449 5.46875 17.1875 5.46875C15.0301 5.46875 13.2812 7.21764 13.2812 9.375C13.2812 11.5324 15.0301 13.2812 17.1875 13.2812Z" fill="#BDECDC"/>
<path d="M26.5625 40.625C27.6441 40.625 28.7014 40.3043 29.6008 39.7034C30.5001 39.1024 31.201 38.2483 31.615 37.2491C32.0289 36.2498 32.1372 35.1502 31.9262 34.0894C31.7152 33.0285 31.1943 32.0541 30.4295 31.2893C29.6647 30.5244 28.6902 30.0036 27.6294 29.7926C26.5686 29.5816 25.469 29.6899 24.4697 30.1038C23.4704 30.5177 22.6163 31.2186 22.0154 32.118C21.4145 33.0173 21.0938 34.0746 21.0938 35.1563C21.0954 36.6062 21.6721 37.9962 22.6973 39.0214C23.7225 40.0467 25.1126 40.6234 26.5625 40.625ZM26.5625 31.25C27.3351 31.25 28.0903 31.4791 28.7327 31.9083C29.3751 32.3375 29.8757 32.9476 30.1714 33.6614C30.4671 34.3752 30.5444 35.1606 30.3937 35.9183C30.243 36.6761 29.8709 37.3721 29.3246 37.9184C28.7783 38.4647 28.0823 38.8367 27.3246 38.9874C26.5668 39.1382 25.7814 39.0608 25.0676 38.7652C24.3539 38.4695 23.7438 37.9688 23.3146 37.3264C22.8853 36.6841 22.6562 35.9288 22.6562 35.1563C22.6574 34.1206 23.0694 33.1277 23.8017 32.3954C24.534 31.6631 25.5269 31.2512 26.5625 31.25Z" fill="black"/>
<path d="M37.4346 37.9929L39.2446 37.5588C39.4153 37.5179 39.5672 37.4207 39.6759 37.2829C39.7846 37.1451 39.8437 36.9747 39.8437 36.7991V33.5134C39.8437 33.3378 39.7846 33.1674 39.6759 33.0296C39.5672 32.8918 39.4153 32.7946 39.2446 32.7537L37.4347 32.3197C37.1429 32.2498 36.8718 32.1117 36.6436 31.9169C36.4154 31.7221 36.2366 31.476 36.1217 31.1988C36.0068 30.9217 35.9592 30.6212 35.9827 30.3221C36.0062 30.0229 36.1002 29.7336 36.257 29.4778L37.2359 27.8804C37.3275 27.7308 37.3662 27.5546 37.3456 27.3804C37.3249 27.2061 37.2463 27.0438 37.1222 26.9197L34.7988 24.5966C34.6747 24.4725 34.5125 24.3939 34.3383 24.3732C34.164 24.3526 33.9879 24.3913 33.8383 24.4829L32.2409 25.4618C31.9851 25.6185 31.6957 25.7125 31.3966 25.736C31.0975 25.7595 30.7971 25.7119 30.5199 25.597C30.2427 25.4821 29.9967 25.3033 29.8018 25.0751C29.607 24.8469 29.469 24.5759 29.399 24.2841L28.965 22.4741C28.9241 22.3034 28.8269 22.1515 28.6891 22.0428C28.5512 21.9341 28.3808 21.875 28.2053 21.875H24.9195C24.744 21.875 24.5736 21.9341 24.4358 22.0428C24.298 22.1515 24.2007 22.3034 24.1598 22.4741L23.7259 24.284C23.656 24.5758 23.5179 24.8468 23.3231 25.0751C23.1283 25.3033 22.8822 25.4821 22.605 25.597C22.3278 25.7118 22.0274 25.7595 21.7282 25.736C21.4291 25.7124 21.1398 25.6184 20.884 25.4617L19.2866 24.4828L18.4702 25.8151L20.0675 26.794C20.5336 27.0796 21.0607 27.2508 21.6057 27.2937C22.1507 27.3365 22.6981 27.2498 23.2031 27.0405C23.7081 26.8312 24.1565 26.5054 24.5114 26.0896C24.8663 25.6738 25.1178 25.18 25.2453 24.6484L25.5356 23.4375H27.5892L27.8796 24.6484C28.0071 25.18 28.2586 25.6738 28.6135 26.0896C28.9684 26.5053 29.4167 26.8312 29.9217 27.0405C30.4267 27.2498 30.9741 27.3365 31.5191 27.2937C32.064 27.2509 32.5911 27.0797 33.0572 26.7941L34.1295 26.137L35.5818 27.5891L34.9247 28.6613C34.6391 29.1275 34.4679 29.6546 34.425 30.1995C34.3822 30.7445 34.4689 31.2919 34.6782 31.7969C34.8875 32.302 35.2133 32.7503 35.6291 33.1052C36.0448 33.4602 36.5387 33.7117 37.0703 33.8391L38.2812 34.1294V36.1831L37.0703 36.4735C36.5387 36.6009 36.0448 36.8524 35.6291 37.2073C35.2133 37.5622 34.8875 38.0105 34.6782 38.5155C34.4689 39.0205 34.3822 39.5679 34.425 40.1129C34.4678 40.6579 34.639 41.1849 34.9246 41.6511L35.5817 42.7234L34.1295 44.1756L33.0573 43.5185C32.5912 43.2329 32.0641 43.0617 31.5191 43.0188C30.9741 42.976 30.4268 43.0627 29.9217 43.272C29.4167 43.4813 28.9684 43.8071 28.6135 44.2229C28.2585 44.6387 28.007 45.1325 27.8795 45.6641L27.5892 46.875H25.5356L25.2452 45.6641C25.1178 45.1325 24.8663 44.6387 24.5114 44.2229C24.1564 43.8072 23.7081 43.4813 23.2031 43.272C22.6981 43.0627 22.1508 42.976 21.6058 43.0188C21.0608 43.0616 20.5337 43.2328 20.0676 43.5184L18.4702 44.4973L19.2866 45.8296L20.884 44.8507C21.1398 44.694 21.4291 44.6 21.7282 44.5765C22.0273 44.553 22.3278 44.6006 22.605 44.7155C22.8821 44.8304 23.1282 45.0092 23.323 45.2374C23.5178 45.4656 23.6559 45.7367 23.7258 46.0284L24.1598 47.8384C24.2007 48.0091 24.298 48.161 24.4358 48.2697C24.5736 48.3784 24.744 48.4375 24.9195 48.4375H28.2053C28.3808 48.4375 28.5513 48.3784 28.6891 48.2697C28.8269 48.161 28.9241 48.0091 28.965 47.8384L29.3989 46.0285C29.4689 45.7367 29.6069 45.4657 29.8018 45.2374C29.9966 45.0092 30.2426 44.8304 30.5198 44.7155C30.797 44.6007 31.0975 44.553 31.3966 44.5765C31.6957 44.6001 31.9851 44.6941 32.2409 44.8508L33.8383 45.8297C33.9879 45.9213 34.1641 45.96 34.3383 45.9394C34.5126 45.9187 34.6748 45.8401 34.7989 45.716L37.1221 43.3928C37.2462 43.2687 37.3248 43.1064 37.3455 42.9321C37.3661 42.7579 37.3274 42.5817 37.2358 42.4321L36.2569 40.8347C36.1002 40.5789 36.0062 40.2896 35.9827 39.9905C35.9592 39.6913 36.0068 39.3909 36.1217 39.1137C36.2365 38.8365 36.4154 38.5905 36.6436 38.3957C36.8718 38.2009 37.1428 38.0628 37.4346 37.9929Z" fill="black"/>
<path d="M47.6562 23.4375H44.5312V19.5312C44.5312 19.3241 44.4489 19.1253 44.3024 18.9788C44.1559 18.8323 43.9572 18.75 43.75 18.75H40.625C40.4178 18.75 40.2191 18.8323 40.0726 18.9788C39.9261 19.1253 39.8438 19.3241 39.8438 19.5312V23.4375H37.5V25H46.875V28.125H38.2812V29.6875H46.875V32.8125H41.4062V34.375H46.875V37.5H41.4062V39.0625H46.875V42.1875H39.0625V43.75H39.8438V47.6562C39.8438 47.8634 39.9261 48.0622 40.0726 48.2087C40.2191 48.3552 40.4178 48.4375 40.625 48.4375H43.75C43.9572 48.4375 44.1559 48.3552 44.3024 48.2087C44.4489 48.0622 44.5312 47.8634 44.5312 47.6562V43.75H47.6562C47.8634 43.75 48.0622 43.6677 48.2087 43.5212C48.3552 43.3747 48.4375 43.1759 48.4375 42.9688V24.2188C48.4375 24.0116 48.3552 23.8128 48.2087 23.6663C48.0622 23.5198 47.8634 23.4375 47.6562 23.4375ZM42.9688 23.4375H41.4062V20.3125H42.9688V23.4375ZM42.9688 46.875H41.4062V43.75H42.9688V46.875Z" fill="black"/>
<path d="M13.504 23.9961L13.0585 25.4937C14.8314 26.0211 15.625 26.8029 15.625 27.3437C15.625 27.8289 15.0137 28.4021 14.0296 28.8394C12.7993 29.3863 11.1462 29.6874 9.375 29.6874C5.55973 29.6874 3.125 28.2993 3.125 27.3437C3.125 26.8029 3.91855 26.0211 5.69153 25.4937L5.24597 23.9961C2.90508 24.6925 1.5625 25.9126 1.5625 27.3437V44.7544C1.5625 45.8666 2.46544 46.8518 4.10509 47.5284C5.52549 48.1146 7.39698 48.4374 9.375 48.4374C11.353 48.4374 13.2245 48.1146 14.6449 47.5284C16.2846 46.8518 17.1875 45.8666 17.1875 44.7544V27.3437C17.1875 25.9126 15.8449 24.6925 13.504 23.9961ZM4.6875 46.0783C3.73795 45.6838 3.125 45.165 3.125 44.7544V43.025C3.61403 43.3409 4.13845 43.5983 4.6875 43.7919V46.0783ZM8.59375 46.8559C7.80554 46.822 7.02155 46.7222 6.25 46.5575V44.2284C7.02255 44.3848 7.80623 44.48 8.59375 44.5132V46.8559ZM12.5 46.5575C11.7284 46.7222 10.9445 46.822 10.1562 46.8559V44.5132C10.9438 44.48 11.7274 44.3848 12.5 44.2284V46.5575ZM15.625 44.7544C15.625 45.165 15.012 45.6838 14.0625 46.0783V43.7919C14.6115 43.5983 15.136 43.3409 15.625 43.025V44.7544ZM15.625 40.6249C15.625 41.1102 15.0137 41.6833 14.0296 42.1207C12.7993 42.6675 11.1462 42.9687 9.375 42.9687C5.55973 42.9687 3.125 41.5805 3.125 40.6249V29.7437C4.527 30.6713 6.76188 31.2499 9.375 31.2499C11.9881 31.2499 14.223 30.6713 15.625 29.7437V40.6249Z" fill="black"/>
<path d="M4.6875 32.0312H6.25V40.625H4.6875V32.0312Z" fill="black"/>
<path d="M8.59375 32.8125H10.1562V41.4062H8.59375V32.8125Z" fill="black"/>
<path d="M12.5 32.0312H14.0625V40.625H12.5V32.0312Z" fill="black"/>
<path d="M8.59375 21.0938C8.59375 20.8865 8.67606 20.6878 8.82257 20.5413C8.96909 20.3948 9.1678 20.3125 9.375 20.3125C9.5822 20.3125 9.78091 20.3948 9.92743 20.5413C10.0739 20.6878 10.1562 20.8865 10.1562 21.0938V27.3438H11.7188V21.0938C11.7188 20.4721 11.4718 19.876 11.0323 19.4365C10.5927 18.9969 9.9966 18.75 9.375 18.75C8.7534 18.75 8.15726 18.9969 7.71772 19.4365C7.27818 19.876 7.03125 20.4721 7.03125 21.0938V27.3438H8.59375V21.0938Z" fill="black"/>
<path d="M10.9375 17.1875H22.2656L24.375 20C24.4477 20.097 24.5421 20.1758 24.6506 20.23C24.7591 20.2843 24.8787 20.3125 25 20.3125C25.1213 20.3125 25.2409 20.2843 25.3494 20.23C25.4579 20.1758 25.5523 20.097 25.625 20L27.7344 17.1875H39.0625C39.6839 17.1868 40.2796 16.9396 40.719 16.5002C41.1584 16.0609 41.4055 15.4651 41.4062 14.8438V3.90625C41.4055 3.28487 41.1584 2.68914 40.719 2.24975C40.2796 1.81037 39.6839 1.56321 39.0625 1.5625H10.9375C10.3161 1.56321 9.72039 1.81037 9.281 2.24975C8.84162 2.68914 8.59446 3.28487 8.59375 3.90625V14.8438C8.59446 15.4651 8.84162 16.0609 9.281 16.5002C9.72039 16.9396 10.3161 17.1868 10.9375 17.1875ZM10.1562 3.90625C10.1565 3.69912 10.2389 3.50055 10.3853 3.35408C10.5318 3.20762 10.7304 3.12524 10.9375 3.125H39.0625C39.2696 3.12524 39.4682 3.20762 39.6147 3.35408C39.7611 3.50055 39.8435 3.69912 39.8438 3.90625V14.8438C39.8435 15.0509 39.7611 15.2495 39.6147 15.3959C39.4682 15.5424 39.2696 15.6248 39.0625 15.625H27.3438C27.2225 15.625 27.1028 15.6532 26.9943 15.7075C26.8859 15.7617 26.7915 15.8405 26.7187 15.9375L25 18.2292L23.2813 15.9375C23.2085 15.8405 23.1141 15.7617 23.0057 15.7075C22.8972 15.6532 22.7775 15.625 22.6562 15.625H10.9375C10.7304 15.6248 10.5318 15.5424 10.3853 15.3959C10.2389 15.2495 10.1565 15.0509 10.1562 14.8438V3.90625Z" fill="black"/>
<path d="M17.1875 14.0625H20.3125C21.5557 14.0625 22.748 13.5686 23.6271 12.6896C24.5061 11.8105 25 10.6182 25 9.375C25 8.1318 24.5061 6.93951 23.6271 6.06044C22.748 5.18136 21.5557 4.6875 20.3125 4.6875H17.1875C15.9443 4.6875 14.752 5.18136 13.8729 6.06044C12.9939 6.93951 12.5 8.1318 12.5 9.375C12.5 10.6182 12.9939 11.8105 13.8729 12.6896C14.752 13.5686 15.9443 14.0625 17.1875 14.0625ZM23.3386 8.59375H21.8086C21.6629 7.73222 21.2785 6.92881 20.6991 6.27477C21.3205 6.35318 21.904 6.61604 22.3745 7.0294C22.845 7.44276 23.1808 7.98766 23.3386 8.59375ZM21.8086 10.1562H23.3386C23.1808 10.7623 22.845 11.3072 22.3745 11.7206C21.904 12.134 21.3205 12.3968 20.6991 12.4752C21.2785 11.8212 21.6629 11.0178 21.8086 10.1562ZM17.1875 6.25C17.8056 6.25 18.4098 6.43328 18.9237 6.77666C19.4376 7.12004 19.8381 7.60809 20.0746 8.17911C20.3111 8.75013 20.373 9.37847 20.2525 9.98466C20.1319 10.5908 19.8342 11.1477 19.3972 11.5847C18.9602 12.0217 18.4033 12.3194 17.7972 12.44C17.191 12.5605 16.5626 12.4986 15.9916 12.2621C15.4206 12.0256 14.9325 11.6251 14.5892 11.1112C14.2458 10.5973 14.0625 9.99307 14.0625 9.375C14.0634 8.54649 14.393 7.75218 14.9788 7.16634C15.5647 6.58049 16.359 6.25095 17.1875 6.25Z" fill="black"/>
<path d="M31.25 9.69858L32.26 10.7087C32.4066 10.8552 32.6053 10.9375 32.8125 10.9375C33.0197 10.9375 33.2184 10.8552 33.3649 10.7087L36.7187 7.35493V9.375H38.2812V5.46875C38.2812 5.26155 38.1989 5.06284 38.0524 4.91633C37.9059 4.76982 37.7072 4.68751 37.5 4.6875H33.5937V6.25H35.6138L32.8125 9.05142L31.8024 8.04129C31.6559 7.89482 31.4572 7.81255 31.25 7.81255C31.0428 7.81255 30.8441 7.89482 30.6975 8.04129L26.01 12.7288L27.1149 13.8337L31.25 9.69858Z" fill="black"/>
</svg>
