<svg width="120" height="120" viewBox="0 0 120 120" fill="none" xmlns="http://www.w3.org/2000/svg">
<g filter="url(#filter0_d_187_1068)">
<circle cx="60" cy="56" r="50" fill="white"/>
</g>
<path d="M83.9587 56L79.292 50.7917L80.7503 43.9792L74.1149 41.8438L72.0316 35.2084L65.2087 36.7084L60.0003 32.0417L54.792 36.7084L48.0212 35.25L45.8857 41.8854L39.2503 44.0209L40.7087 50.7917L36.042 56L40.7087 61.2084L39.2503 67.9792L45.8857 70.0625L48.0212 76.6979L54.792 75.2917L60.0003 79.9584L65.2087 75.2917L72.0212 76.75L74.1045 70.1146L80.7399 68.0313L79.292 61.2084L83.9587 56ZM60.0003 73.7084C56.4979 73.7084 53.0742 72.6698 50.1621 70.724C47.25 68.7781 44.9803 66.0125 43.64 62.7767C42.2997 59.5409 41.949 55.9804 42.6323 52.5453C43.3155 49.1102 45.0021 45.9549 47.4786 43.4783C49.9552 41.0018 53.1105 39.3152 56.5456 38.6319C59.9807 37.9487 63.5412 38.2994 66.777 39.6397C70.0128 40.98 72.7785 43.2497 74.7243 46.1618C76.6701 49.0739 77.7087 52.4976 77.7087 56C77.7087 60.6966 75.843 65.2007 72.522 68.5217C69.2011 71.8427 64.6969 73.7084 60.0003 73.7084Z" fill="#FF0000"/>
<path d="M60 40.375C56.9097 40.375 53.8887 41.2914 51.3192 43.0083C48.7497 44.7252 46.747 47.1655 45.5644 50.0206C44.3818 52.8757 44.0723 56.0173 44.6752 59.0483C45.2781 62.0792 46.7663 64.8633 48.9515 67.0485C51.1367 69.2337 53.9208 70.7219 56.9517 71.3248C59.9827 71.9277 63.1243 71.6182 65.9794 70.4356C68.8345 69.253 71.2748 67.2503 72.9917 64.6808C74.7086 62.1113 75.625 59.0903 75.625 56C75.625 51.856 73.9788 47.8817 71.0486 44.9515C68.1183 42.0212 64.144 40.375 60 40.375ZM70.3229 54.0208L60.5625 63.7813C60.0788 64.2665 59.5041 64.6515 58.8713 64.9143C58.2386 65.177 57.5602 65.3124 56.875 65.3125C54.0833 65.3125 52.9583 63.5521 49.6771 60.2708C48.9022 59.4607 48.4751 58.3795 48.4871 57.2585C48.4991 56.1376 48.9493 55.0658 49.7413 54.2724C50.5333 53.479 51.6043 53.0271 52.7253 53.0131C53.8462 52.9992 54.9281 53.4245 55.7396 54.1979L56.875 55.3229L64.2604 47.9479C65.0719 47.1745 66.1538 46.7492 67.2747 46.7631C68.3957 46.7771 69.4667 47.229 70.2587 48.0224C71.0507 48.8158 71.5009 49.8876 71.5129 51.0085C71.5249 52.1295 71.0978 53.2107 70.3229 54.0208Z" fill="#FF0000"/>
<path d="M65.7296 49.4167L56.8754 58.2708L54.2712 55.6667C53.8568 55.2523 53.2948 55.0195 52.7087 55.0195C52.1227 55.0195 51.5606 55.2523 51.1462 55.6667C50.7318 56.0811 50.499 56.6431 50.499 57.2292C50.499 57.8152 50.7318 58.3773 51.1462 58.7917L54.6671 62.3125C55.253 62.8977 56.0473 63.2264 56.8754 63.2264C57.7035 63.2264 58.4978 62.8977 59.0837 62.3125L68.8546 52.5417C69.269 52.1273 69.5018 51.5652 69.5018 50.9792C69.5018 50.3931 69.269 49.8311 68.8546 49.4167C68.4402 49.0023 67.8781 48.7695 67.2921 48.7695C66.706 48.7695 66.144 49.0023 65.7296 49.4167Z" fill="#FF0000"/>
<defs>
<filter id="filter0_d_187_1068" x="0" y="0" width="120" height="120" filterUnits="userSpaceOnUse" color-interpolation-filters="sRGB">
<feFlood flood-opacity="0" result="BackgroundImageFix"/>
<feColorMatrix in="SourceAlpha" type="matrix" values="0 0 0 0 0 0 0 0 0 0 0 0 0 0 0 0 0 0 127 0" result="hardAlpha"/>
<feOffset dy="4"/>
<feGaussianBlur stdDeviation="5"/>
<feComposite in2="hardAlpha" operator="out"/>
<feColorMatrix type="matrix" values="0 0 0 0 0 0 0 0 0 0 0 0 0 0 0 0 0 0 0.25 0"/>
<feBlend mode="normal" in2="BackgroundImageFix" result="effect1_dropShadow_187_1068"/>
<feBlend mode="normal" in="SourceGraphic" in2="effect1_dropShadow_187_1068" result="shape"/>
</filter>
</defs>
</svg>
