<svg width="50" height="50" viewBox="0 0 50 50" fill="none" xmlns="http://www.w3.org/2000/svg">
<path d="M47.6562 10.9375V46.0938C47.655 46.5078 47.49 46.9045 47.1972 47.1972C46.9045 47.49 46.5078 47.655 46.0938 47.6562H19.5312C19.1172 47.655 18.7205 47.49 18.4278 47.1972C18.135 46.9045 17.97 46.5078 17.9688 46.0938V3.90625C17.97 3.49223 18.135 3.09552 18.4278 2.80276C18.7205 2.51 19.1172 2.34499 19.5312 2.34375H39.0625V9.375C39.0637 9.78902 39.2288 10.1857 39.5215 10.4785C39.8143 10.7712 40.211 10.9363 40.625 10.9375H47.6562Z" fill="#FEE9AB"/>
<path d="M47.6564 10.9375V46.0938C47.6551 46.5078 47.4901 46.9045 47.1974 47.1972C46.9046 47.49 46.5079 47.655 46.0939 47.6562H42.9689C43.3829 47.655 43.7796 47.49 44.0724 47.1972C44.3651 46.9045 44.5301 46.5078 44.5314 46.0938V10.9375H47.6564Z" fill="#FFD422"/>
<path d="M47.6564 10.9375H40.6251C40.2111 10.9363 39.8144 10.7712 39.5216 10.4785C39.2289 10.1857 39.0639 9.78902 39.0626 9.375V2.34375L47.6564 10.9375Z" fill="#FF7956"/>
<path d="M38.2812 44.5312C41.733 44.5312 44.5312 41.733 44.5312 38.2812C44.5312 34.8295 41.733 32.0312 38.2812 32.0312C34.8295 32.0312 32.0312 34.8295 32.0312 38.2812C32.0312 41.733 34.8295 44.5312 38.2812 44.5312Z" fill="#BDFDFF"/>
<path d="M36.7188 21.875H21.0938V6.25C23.1458 6.24938 25.1779 6.65312 27.0739 7.43813C28.9699 8.22314 30.6926 9.37405 32.1437 10.8251C33.5947 12.2761 34.7456 13.9989 35.5306 15.8948C36.3156 17.7908 36.7194 19.8229 36.7188 21.875Z" fill="#FF3051"/>
<path d="M44.5314 38.2812C44.5314 39.9389 43.8729 41.5286 42.7008 42.7007C41.5287 43.8728 39.939 44.5312 38.2814 44.5312C37.7545 44.5303 37.2297 44.4647 36.7189 44.3359C38.0608 43.9889 39.2493 43.2059 40.0979 42.11C40.9464 41.014 41.4069 39.6673 41.4069 38.2812C41.4069 36.8952 40.9464 35.5485 40.0979 34.4525C39.2493 33.3566 38.0608 32.5736 36.7189 32.2266C37.2297 32.0978 37.7545 32.0322 38.2814 32.0312C39.939 32.0312 41.5287 32.6897 42.7008 33.8618C43.8729 35.0339 44.5314 36.6236 44.5314 38.2812Z" fill="#46F8FF"/>
<path d="M36.7188 21.875H33.5938C33.5945 18.273 32.3507 14.7813 30.0728 11.9909C27.795 9.20057 24.623 7.28291 21.0938 6.5625V6.25C23.1458 6.24938 25.1779 6.65312 27.0739 7.43813C28.9699 8.22314 30.6926 9.37405 32.1437 10.8251C33.5947 12.2761 34.7456 13.9989 35.5306 15.8948C36.3156 17.7908 36.7194 19.8229 36.7188 21.875Z" fill="#CD2A00"/>
<path d="M17.9688 25H33.5938C33.5931 28.0898 32.6763 31.1101 30.9594 33.679C29.2425 36.2479 26.8024 38.2501 23.9477 39.4325C21.093 40.6148 17.9519 40.9242 14.9214 40.3216C11.8909 39.719 9.10706 38.2314 6.92188 36.0469L17.9688 25Z" fill="#5EAC24"/>
<path d="M17.9688 9.375V25L6.92196 36.0469C4.73744 33.8617 3.24984 31.0779 2.64722 28.0474C2.0446 25.0169 2.35403 21.8757 3.53637 19.021C4.71871 16.1663 6.72089 13.7263 9.2898 12.0093C11.8587 10.2924 14.879 9.37566 17.9688 9.375Z" fill="#FFCD00"/>
<path d="M48.211 10.3828L39.6173 1.78906C39.4683 1.64516 39.2697 1.56404 39.0626 1.5625H19.5313C18.9103 1.56435 18.3152 1.81188 17.8761 2.25102C17.437 2.69015 17.1894 3.28522 17.1876 3.90625V8.63281C12.9794 8.83006 9.00888 10.6406 6.10056 13.6884C3.19223 16.7363 1.56958 20.7872 1.56958 25C1.56958 29.2128 3.19223 33.2637 6.10056 36.3116C9.00888 39.3594 12.9794 41.1699 17.1876 41.3672V46.0938C17.1894 46.7148 17.437 47.3098 17.8761 47.749C18.3152 48.1881 18.9103 48.4356 19.5313 48.4375H46.0938C46.7149 48.4356 47.3099 48.1881 47.7491 47.749C48.1882 47.3098 48.4357 46.7148 48.4376 46.0938V10.9375C48.436 10.7304 48.3549 10.5318 48.211 10.3828ZM39.8438 4.22656L45.7735 10.1562H40.6251C40.4179 10.1562 40.2192 10.0739 40.0727 9.92743C39.9261 9.78091 39.8438 9.5822 39.8438 9.375V4.22656ZM3.12509 25C3.13017 21.2002 4.5905 17.5467 7.20596 14.7903C9.82141 12.0339 13.3933 10.384 17.1876 10.1797V24.6797L6.95321 34.9141C4.48955 32.1999 3.12484 28.6656 3.12509 25ZM8.05477 36.0156L18.2892 25.7812H32.7891C32.6468 28.5806 31.7133 31.2822 30.0969 33.5722C28.4805 35.8622 26.2477 37.6467 23.6576 38.7184C21.0676 39.7901 18.2267 40.105 15.4648 39.6266C12.7029 39.1482 10.1334 37.896 8.05477 36.0156ZM46.8751 46.0938C46.8751 46.3009 46.7928 46.4997 46.6463 46.6462C46.4998 46.7927 46.301 46.875 46.0938 46.875H19.5313C19.3241 46.875 19.1254 46.7927 18.9789 46.6462C18.8324 46.4997 18.7501 46.3009 18.7501 46.0938V41.3672C22.9568 41.164 26.9245 39.3518 29.8327 36.3055C32.7409 33.2591 34.3672 29.2116 34.3751 25C34.3751 24.7928 34.2928 24.5941 34.1463 24.4476C33.9998 24.3011 33.801 24.2188 33.5938 24.2188H18.7501V3.90625C18.7501 3.69905 18.8324 3.50034 18.9789 3.35382C19.1254 3.20731 19.3241 3.125 19.5313 3.125H38.2813V9.375C38.2832 9.99603 38.5307 10.5911 38.9699 11.0302C39.409 11.4694 40.0041 11.7169 40.6251 11.7188H46.8751V46.0938Z" fill="black"/>
<path d="M21.0938 5.46875C20.8865 5.46875 20.6878 5.55106 20.5413 5.69757C20.3948 5.84409 20.3125 6.0428 20.3125 6.25V21.875C20.3125 22.0822 20.3948 22.2809 20.5413 22.4274C20.6878 22.5739 20.8865 22.6562 21.0938 22.6562H36.7188C36.926 22.6562 37.1247 22.5739 37.2712 22.4274C37.4177 22.2809 37.5 22.0822 37.5 21.875C37.4952 17.5253 35.7652 13.355 32.6895 10.2793C29.6137 7.20354 25.4435 5.47351 21.0938 5.46875ZM21.875 21.0938V7.05469C25.5346 7.25119 28.9925 8.79338 31.5839 11.3848C34.1754 13.9763 35.7176 17.4341 35.9141 21.0938H21.875Z" fill="black"/>
<path d="M38.2813 31.25C36.8906 31.25 35.5312 31.6624 34.3749 32.435C33.2186 33.2076 32.3174 34.3057 31.7852 35.5905C31.253 36.8753 31.1138 38.2891 31.3851 39.653C31.6564 41.0169 32.3261 42.2698 33.3094 43.2531C34.2927 44.2364 35.5456 44.9061 36.9095 45.1774C38.2735 45.4487 39.6872 45.3095 40.972 44.7773C42.2568 44.2451 43.3549 43.3439 44.1275 42.1876C44.9001 41.0313 45.3125 39.6719 45.3125 38.2812C45.3096 36.4173 44.5679 34.6306 43.2499 33.3126C41.9319 31.9946 40.1452 31.2529 38.2813 31.25ZM38.2813 43.75C37.1996 43.75 36.1423 43.4293 35.243 42.8283C34.3436 42.2274 33.6427 41.3733 33.2288 40.374C32.8149 39.3748 32.7066 38.2752 32.9176 37.2144C33.1286 36.1535 33.6494 35.1791 34.4143 34.4143C35.1791 33.6494 36.1535 33.1286 37.2144 32.9176C38.2752 32.7066 39.3748 32.8149 40.3741 33.2288C41.3733 33.6427 42.2274 34.3436 42.8284 35.243C43.4293 36.1423 43.75 37.1996 43.75 38.2812C43.7483 39.7311 43.1716 41.1212 42.1464 42.1464C41.1212 43.1716 39.7311 43.7483 38.2813 43.75Z" fill="black"/>
<path d="M36.7188 39.5204L34.9274 37.729L33.8228 38.8337L36.1665 41.1774C36.313 41.3239 36.5117 41.4062 36.7188 41.4062C36.926 41.4062 37.1247 41.3239 37.2712 41.1774L41.9587 36.4899L40.854 35.3853L36.7188 39.5204Z" fill="black"/>
<path d="M39.0626 14.8438H45.3126V16.4062H39.0626V14.8438Z" fill="black"/>
<path d="M39.0626 19.5312H45.3126V21.0938H39.0626V19.5312Z" fill="black"/>
<path d="M39.0626 24.2188H45.3126V25.7812H39.0626V24.2188Z" fill="black"/>
</svg>
