<svg width="30" height="30" viewBox="0 0 30 30" fill="none" xmlns="http://www.w3.org/2000/svg">
<path d="M25.9784 11.4435L24.6775 6.0105C24.5179 5.343 23.9429 4.875 23.2831 4.875H5.71831C5.0585 4.875 4.4835 5.343 4.3225 6.0105L3.02156 11.4435C3.00719 11.502 3 11.5635 3 11.625C3 13.692 4.53094 15.375 6.41406 15.375C7.508 15.375 8.48406 14.8065 9.10938 13.9245C9.73469 14.8065 10.7108 15.375 11.8047 15.375C12.8986 15.375 13.8747 14.8065 14.5 13.9245C15.1253 14.8065 16.0999 15.375 17.1953 15.375C18.2907 15.375 19.2653 14.8065 19.8906 13.9245C20.5159 14.8065 21.4906 15.375 22.5859 15.375C24.4691 15.375 26 13.692 26 11.625C26 11.5635 25.9928 11.502 25.9784 11.4435Z" fill="#E03111"/>
<path d="M22.5859 16.8752C21.607 16.8752 20.6769 16.5632 19.8906 15.9932C18.318 17.1347 16.0726 17.1347 14.5 15.9932C12.9274 17.1347 10.682 17.1347 9.10938 15.9932C8.32306 16.5632 7.393 16.8752 6.41406 16.8752C5.70825 16.8752 5.04269 16.7027 4.4375 16.4087V24.3752C4.4375 25.2032 5.0815 25.8752 5.875 25.8752H11.625V19.8752H17.375V25.8752H23.125C23.9185 25.8752 24.5625 25.2032 24.5625 24.3752V16.4087C23.9573 16.7027 23.2917 16.8752 22.5859 16.8752Z" fill="#E03111"/>
</svg>
