<svg width="16" height="16" viewBox="0 0 16 16" fill="none" xmlns="http://www.w3.org/2000/svg">
<path d="M7.9007 11.4484L8.15871 11.6038L10.891 13.2498L10.9015 13.2561L10.9014 13.2562C10.9381 13.2795 10.9565 13.2797 10.9701 13.2785C11.0108 13.2751 11.0325 13.2643 11.0503 13.2505C11.0865 13.2223 11.1144 13.1882 11.1364 13.1421L11.5877 13.3574M7.9007 11.4484L8.00649 3.54488C8.01822 3.5516 8.03228 3.56141 8.04817 3.59955L8.04817 3.59955L8.04894 3.60138L9.28341 6.5312L9.4004 6.80884L9.70053 6.83514L12.8782 7.11359C12.9441 7.12428 12.9677 7.13963 12.9707 7.14174C12.9887 7.15759 13.0092 7.18295 13.0271 7.23215C13.0386 7.26379 13.0406 7.29114 13.0334 7.32506C13.0311 7.33534 13.0243 7.35803 12.9844 7.39469L10.5695 9.48106L10.3409 9.67855L10.4094 9.97278L11.1334 13.0827C11.1334 13.0828 11.1334 13.083 11.1335 13.0831C11.1396 13.11 11.1394 13.1253 11.1388 13.1317C11.1384 13.1373 11.1374 13.14 11.1361 13.1428L11.5877 13.3574M7.9007 11.4484L7.6427 11.6038L4.9104 13.2498L4.91032 13.2496L4.89997 13.2562C4.86336 13.2795 4.84494 13.2797 4.83136 13.2785C4.79063 13.2751 4.76895 13.2643 4.75115 13.2505L4.44418 13.6451M7.9007 11.4484L11.6206 12.9703C11.6535 13.1129 11.6425 13.242 11.5877 13.3574M11.5877 13.3574C11.5328 13.4724 11.456 13.5683 11.3572 13.6451C11.2585 13.7219 11.1433 13.7658 11.0116 13.7768C10.8799 13.7878 10.7537 13.7549 10.633 13.678L7.9007 12.0321L5.16841 13.678C5.0477 13.7549 4.92151 13.7878 4.78983 13.7768C4.65816 13.7658 4.54294 13.7219 4.44418 13.6451M4.44418 13.6451L4.75115 13.2505C4.71495 13.2223 4.68703 13.1882 4.66502 13.1421L4.21375 13.3574L4.44418 13.6451Z" fill="#FFD422" stroke="#FFD422"/>
</svg>
