<svg width="30" height="30" viewBox="0 0 30 30" fill="none" xmlns="http://www.w3.org/2000/svg">
<g clip-path="url(#clip0_191_2045)">
<path d="M29.375 15L26.575 11.875L27.45 7.7875L23.4688 6.50625L22.2188 2.525L18.125 3.425L15 0.625L11.875 3.425L7.8125 2.55L6.53125 6.53125L2.55 7.8125L3.425 11.875L0.625 15L3.425 18.125L2.55 22.1875L6.53125 23.4375L7.8125 27.4187L11.875 26.575L15 29.375L18.125 26.575L22.2125 27.45L23.4625 23.4688L27.4438 22.2188L26.575 18.125L29.375 15ZM15 25.625C12.8986 25.625 10.8443 25.0019 9.09707 23.8344C7.34979 22.6669 5.98796 21.0075 5.18378 19.066C4.3796 17.1245 4.16919 14.9882 4.57916 12.9272C4.98912 10.8661 6.00106 8.97292 7.48699 7.48699C8.97292 6.00106 10.8661 4.98912 12.9272 4.57916C14.9882 4.16919 17.1245 4.3796 19.066 5.18378C21.0075 5.98796 22.6669 7.34979 23.8344 9.09707C25.0019 10.8443 25.625 12.8986 25.625 15C25.625 17.8179 24.5056 20.5204 22.513 22.513C20.5204 24.5056 17.8179 25.625 15 25.625Z" fill="#FF0000"/>
<path d="M15 5.625C13.1458 5.625 11.3332 6.17483 9.79153 7.20497C8.24982 8.23511 7.04821 9.69929 6.33863 11.4123C5.62906 13.1254 5.44341 15.0104 5.80514 16.829C6.16688 18.6475 7.05976 20.318 8.37088 21.6291C9.682 22.9402 11.3525 23.8331 13.171 24.1949C14.9896 24.5566 16.8746 24.3709 18.5877 23.6614C20.3007 22.9518 21.7649 21.7502 22.795 20.2085C23.8252 18.6668 24.375 16.8542 24.375 15C24.375 12.5136 23.3873 10.129 21.6291 8.37087C19.871 6.61272 17.4864 5.625 15 5.625ZM21.1938 13.8125L15.3375 19.6688C15.0473 19.9599 14.7025 20.1909 14.3228 20.3486C13.9431 20.5062 13.5361 20.5874 13.125 20.5875C11.45 20.5875 10.775 19.5313 8.80625 17.5625C8.34135 17.0764 8.08509 16.4277 8.09229 15.7551C8.09949 15.0825 8.36957 14.4395 8.84478 13.9635C9.31999 13.4874 9.96259 13.2162 10.6352 13.2079C11.3077 13.1995 11.9569 13.4547 12.4438 13.9188L13.125 14.5938L17.5563 10.1688C18.0431 9.70468 18.6923 9.44953 19.3649 9.45789C20.0374 9.46624 20.68 9.73743 21.1552 10.2135C21.6304 10.6895 21.9005 11.3325 21.9077 12.0051C21.9149 12.6777 21.6587 13.3264 21.1938 13.8125Z" fill="#FF0000"/>
<path d="M18.4372 11.05L13.1247 16.3625L11.5622 14.8C11.3135 14.5514 10.9763 14.4117 10.6247 14.4117C10.273 14.4117 9.93579 14.5514 9.68715 14.8C9.43851 15.0486 9.29883 15.3859 9.29883 15.7375C9.29883 16.0891 9.43851 16.4264 9.68715 16.675L11.7997 18.7875C12.1512 19.1386 12.6278 19.3359 13.1247 19.3359C13.6215 19.3359 14.0981 19.1386 14.4497 18.7875L20.3122 12.925C20.5608 12.6764 20.7005 12.3391 20.7005 11.9875C20.7005 11.6359 20.5608 11.2986 20.3122 11.05C20.0635 10.8014 19.7263 10.6617 19.3747 10.6617C19.023 10.6617 18.6858 10.8014 18.4372 11.05Z" fill="#FF0000"/>
</g>
<defs>
<clipPath id="clip0_191_2045">
<rect width="30" height="30" fill="white"/>
</clipPath>
</defs>
</svg>
